<?xml version="1.0" encoding="UTF-8" standalone="no"?>
<!-- Created with Inkscape (http://www.inkscape.org/) -->

<svg
   xmlns:dc="http://purl.org/dc/elements/1.1/"
   xmlns:cc="http://creativecommons.org/ns#"
   xmlns:rdf="http://www.w3.org/1999/02/22-rdf-syntax-ns#"
   xmlns:svg="http://www.w3.org/2000/svg"
   xmlns="http://www.w3.org/2000/svg"
   xmlns:xlink="http://www.w3.org/1999/xlink"
   xmlns:inkscape="http://www.inkscape.org/namespaces/inkscape"
   version="1.1"
   width="600"
   height="576.00006"
   id="svg3465">
  <defs
     id="defs3467">
    <clipPath
       id="clipPath3583">
      <path
         d="M 0,288 300,288 300,0 0,0 0,288 z"
         inkscape:connector-curvature="0"
         id="path3585" />
    </clipPath>
    <linearGradient
       x1="0"
       y1="0"
       x2="1"
       y2="0"
       id="linearGradient3569"
       gradientUnits="userSpaceOnUse"
       gradientTransform="matrix(-170.50069,-119.49944,-119.49944,170.50069,238.3584,199.01953)"
       spreadMethod="pad">
      <stop
         id="stop3571"
         style="stop-color:#bf331c;stop-opacity:1"
         offset="0" />
      <stop
         id="stop3573"
         style="stop-color:#f6971d;stop-opacity:1"
         offset="0.46751401" />
      <stop
         id="stop3575"
         style="stop-color:#bf331c;stop-opacity:1"
         offset="1" />
    </linearGradient>
    <clipPath
       id="clipPath3549">
      <path
         d="M 0,288 300,288 300,0 0,0 0,288 z"
         inkscape:connector-curvature="0"
         id="path3551" />
    </clipPath>
    <linearGradient
       x1="0"
       y1="0"
       x2="1"
       y2="0"
       id="linearGradient3535"
       gradientUnits="userSpaceOnUse"
       gradientTransform="matrix(-170.50069,-119.49944,-119.49944,170.50069,231.86523,208.28418)"
       spreadMethod="pad">
      <stop
         id="stop3537"
         style="stop-color:#bf331c;stop-opacity:1"
         offset="0" />
      <stop
         id="stop3539"
         style="stop-color:#f6971d;stop-opacity:1"
         offset="0.46751401" />
      <stop
         id="stop3541"
         style="stop-color:#bf331c;stop-opacity:1"
         offset="1" />
    </linearGradient>
    <clipPath
       id="clipPath3515">
      <path
         d="M 0,288 300,288 300,0 0,0 0,288 z"
         inkscape:connector-curvature="0"
         id="path3517" />
    </clipPath>
    <clipPath
       id="clipPath3501">
      <path
         d="M 0,0 300,0 300,288 0,288 0,0 z"
         inkscape:connector-curvature="0"
         id="path3503" />
    </clipPath>
    <clipPath
       id="clipPath3487">
      <path
         d="M 0,288 0,0 7.056,0 5.376,288 0,288 z"
         inkscape:connector-curvature="0"
         id="path3489" />
    </clipPath>
    <linearGradient
       x1="0"
       y1="0"
       x2="1"
       y2="0"
       id="linearGradient3048"
       xlink:href="#linearGradient3569"
       gradientUnits="userSpaceOnUse"
       gradientTransform="matrix(-170.50069,-119.49944,-119.49944,170.50069,238.3584,199.01953)"
       spreadMethod="pad" />
    <linearGradient
       x1="0"
       y1="0"
       x2="1"
       y2="0"
       id="linearGradient3057"
       xlink:href="#linearGradient3535"
       gradientUnits="userSpaceOnUse"
       gradientTransform="matrix(-170.50069,-119.49944,-119.49944,170.50069,231.86523,208.28418)"
       spreadMethod="pad" />
    <linearGradient
       x1="0"
       y1="0"
       x2="1"
       y2="0"
       id="linearGradient3068"
       xlink:href="#linearGradient3535"
       gradientUnits="userSpaceOnUse"
       gradientTransform="matrix(-170.50069,-119.49944,-119.49944,170.50069,231.86523,208.28418)"
       spreadMethod="pad" />
    <linearGradient
       x1="0"
       y1="0"
       x2="1"
       y2="0"
       id="linearGradient3075"
       xlink:href="#linearGradient3569"
       gradientUnits="userSpaceOnUse"
       gradientTransform="matrix(-170.50069,-119.49944,-119.49944,170.50069,238.3584,199.01953)"
       spreadMethod="pad" />
    <linearGradient
       x1="0"
       y1="0"
       x2="1"
       y2="0"
       id="linearGradient3083"
       xlink:href="#linearGradient3569"
       gradientUnits="userSpaceOnUse"
       gradientTransform="matrix(-170.50069,-119.49944,-119.49944,170.50069,238.3584,199.01953)"
       spreadMethod="pad" />
    <linearGradient
       x1="0"
       y1="0"
       x2="1"
       y2="0"
       id="linearGradient3088"
       xlink:href="#linearGradient3535"
       gradientUnits="userSpaceOnUse"
       gradientTransform="matrix(-170.50069,-119.49944,-119.49944,170.50069,231.86523,208.28418)"
       spreadMethod="pad" />
    <linearGradient
       x1="0"
       y1="0"
       x2="1"
       y2="0"
       id="linearGradient3093"
       xlink:href="#linearGradient3535"
       gradientUnits="userSpaceOnUse"
       gradientTransform="matrix(-170.50069,-119.49944,-119.49944,170.50069,231.86523,208.28418)"
       spreadMethod="pad" />
    <linearGradient
       x1="0"
       y1="0"
       x2="1"
       y2="0"
       id="linearGradient3096"
       xlink:href="#linearGradient3535"
       gradientUnits="userSpaceOnUse"
       gradientTransform="matrix(-213.12586,149.3743,-149.3743,-213.12586,1415.6648,369.64477)"
       spreadMethod="pad" />
    <linearGradient
       x1="0"
       y1="0"
       x2="1"
       y2="0"
       id="linearGradient3098"
       xlink:href="#linearGradient3569"
       gradientUnits="userSpaceOnUse"
       gradientTransform="matrix(-170.50069,-119.49944,-119.49944,170.50069,238.3584,199.01953)"
       spreadMethod="pad" />
    <linearGradient
       x1="0"
       y1="0"
       x2="1"
       y2="0"
       id="linearGradient3101"
       xlink:href="#linearGradient3569"
       gradientUnits="userSpaceOnUse"
       gradientTransform="matrix(-213.12586,149.3743,-149.3743,-213.12586,1423.7813,381.22559)"
       spreadMethod="pad" />
  </defs>
  <metadata
     id="metadata3470">
    <rdf:RDF>
      <cc:Work
         rdf:about="">
        <dc:format>image/svg+xml</dc:format>
        <dc:type
           rdf:resource="http://purl.org/dc/dcmitype/StillImage" />
        <dc:title />
      </cc:Work>
    </rdf:RDF>
  </metadata>
  <g
     transform="matrix(1.6,0,0,1.6,-1801.3338,-432.00011)"
     id="layer1">
    <path
       d="m 1362.1761,396.86762 -77.6488,102.415 37.0263,23.69125 0,81.845 -57.0588,-101.68375 77.6475,-102.415 -37.0237,-23.69375 0,-81.84625 57.0575,101.6875 z m 105.5587,16.40375 c -20.635,0.002 -37.3599,16.7475 -37.3599,37.405 0,20.65875 16.7274,37.4075 37.3599,37.4075 l -134.6924,116.735 0,-88.14625 -31.835,-20.36875 74.6775,-98.49125 -57.6176,-102.6325 149.4675,118.09125 z m -308.7987,73.4575 c 20.6325,0 37.3588,-16.74875 37.3588,-37.405 0,-20.66125 -16.7263,-37.4075 -37.3613,-37.4075 l 134.695,-116.73625 0,88.145 31.8325,20.37125 -74.6762,98.49375 57.6162,102.62875 -149.465,-118.09 z m 146.1025,-216.66 -176.9312,153.35125 30.8262,0 c 14.265,0 25.8725,11.62125 25.8725,25.90375 0,14.2825 -11.605,25.90125 -25.87,25.90125 l -33.1025,0 195.72,154.6475 0,0.1275 0.075,-0.0663 176.9325,-153.3525 -30.8262,0 c -14.265,0 -25.8713,-11.62 -25.8713,-25.905 0,-14.2825 11.6063,-25.90125 25.8713,-25.90125 l 33.0987,-0.005 -195.715,-154.64125 0,-0.12875 -0.08,0.0688 z"
       inkscape:connector-curvature="0"
       id="path3521"
       style="fill:#ffffff;fill-opacity:1;fill-rule:nonzero;stroke:none" />
    <path
       d="m 1158.9346,411.91625 c 20.6337,0 37.36,16.74625 37.36,37.4075 l 0,0 c 0,20.65625 -16.7263,37.405 -37.3588,37.405 l 0,0 149.4663,118.09 -57.6175,-102.62875 74.6762,-98.49375 -31.8325,-20.37 0,-88.145 -134.6937,116.735 z"
       inkscape:connector-curvature="0"
       id="path3543"
       style="fill:url(#linearGradient3096);stroke:none" />
    <path
       d="m 1158.9339,411.9165 c 20.635,0 37.3613,16.745 37.3613,37.4075 0,20.65625 -16.7263,37.405 -37.3588,37.405 l 149.465,118.09 -57.6175,-102.62875 74.6775,-98.49375 -31.8325,-20.37125 0,-88.145 -134.695,116.73625 z"
       inkscape:connector-curvature="0"
       id="path3555"
       style="fill:none;stroke:#000000;stroke-width:7.5;stroke-linecap:butt;stroke-linejoin:miter;stroke-miterlimit:100;stroke-opacity:1;stroke-dasharray:none" />
    <path
       d="m 1375.8846,397.8125 -74.6775,98.49125 31.835,20.36875 0,88.14625 134.6937,-116.735 c -20.6325,0 -37.3612,-16.74875 -37.3612,-37.4075 l 0,0 c 0,-20.65625 16.7262,-37.40125 37.3612,-37.405 l 0,0 -149.4675,-118.09 57.6163,102.63125 z"
       inkscape:connector-curvature="0"
       id="path3577"
       style="fill:url(#linearGradient3101);stroke:none" />
    <path
       d="m 1467.7352,488.0835 c -20.6325,0 -37.3612,-16.7475 -37.3612,-37.4075 0,-20.65625 16.7262,-37.4025 37.3612,-37.405 l -149.4675,-118.09 57.6175,102.63125 -74.6787,98.49125 31.8362,20.36875 0,88.1475 134.6925,-116.73625 z"
       inkscape:connector-curvature="0"
       id="path3589"
       style="fill:none;stroke:#000000;stroke-width:7.5;stroke-linecap:butt;stroke-linejoin:miter;stroke-miterlimit:100;stroke-opacity:1;stroke-dasharray:none" />
  </g>
</svg>
