<?xml version="1.0" encoding="UTF-8" standalone="no"?>
<!-- Created with Inkscape (http://www.inkscape.org/) -->

<svg
   xmlns:dc="http://purl.org/dc/elements/1.1/"
   xmlns:cc="http://creativecommons.org/ns#"
   xmlns:rdf="http://www.w3.org/1999/02/22-rdf-syntax-ns#"
   xmlns:svg="http://www.w3.org/2000/svg"
   xmlns="http://www.w3.org/2000/svg"
   xmlns:inkscape="http://www.inkscape.org/namespaces/inkscape"
   version="1.1"
   width="1128.0001"
   height="600"
   id="svg5582">
  <defs
     id="defs5584" />
  <metadata
     id="metadata5587">
    <rdf:RDF>
      <cc:Work
         rdf:about="">
        <dc:format>image/svg+xml</dc:format>
        <dc:type
           rdf:resource="http://purl.org/dc/dcmitype/StillImage" />
        <dc:title />
      </cc:Work>
    </rdf:RDF>
  </metadata>
  <g
     transform="translate(-134.74183,186.78623)"
     id="layer1">
    <path
       d="M 962.74198,-186.78623 H 434.7419 l 0,0 c -165.67805,0 -300.00007,134.310047 -300.00007,299.98799 0,165.69022 134.32202,300.01201 300.00007,300.01201 l 0,0 h 528.00008 c 165.67802,0 300.00002,-134.32179 300.00002,-300.01201 0,-165.677943 -134.322,-299.98799 -300.00002,-299.98799 z"
       inkscape:connector-curvature="0"
       id="path385"
       style="fill:#cac5c0" />
    <path
       d="m 396.21588,-108.78618 v 355.80617 c 0,42.57595 17.88002,63.8339 53.74203,63.8339 h 9.35397 v 24.35983 H 270.00586 v -24.36587 h 11.87402 c 34.67396,0 51.99598,-21.27003 51.99598,-63.84598 V 13.613846 c 0,-43.068004 -14.964,-64.620005 -44.85,-64.620005 h -19.02 v -23.580036 h 6.85796 c 36.97203,0 70.44005,-11.411994 100.35004,-34.218005 h 19.00202 v 0.0168 z"
       inkscape:connector-curvature="0"
       id="path387"
       style="fill:#0d0f0f" />
    <path
       d="m 513.49789,126.67782 c 0,-54.305815 11.44803,-104.399997 34.374,-150.245977 28.39202,-56.814028 67.27805,-85.218023 116.61605,-85.218023 48.82199,0 86.94,24.17401 114.35401,72.492005 22.90799,39.8760404 34.37404,86.238062 34.37404,139.043925 0,54.84595 -11.46004,104.41204 -34.37404,148.77008 -27.91201,55.8061 -66.78599,83.69389 -116.61601,83.69389 -47.346,0 -84.93602,-23.90391 -112.85403,-71.74193 -23.92203,-40.86599 -35.87402,-86.44787 -35.87402,-136.79397 z m 62.76602,-24.65405 c 0,71.74192 10.71,127.57218 32.16602,167.43608 14.928,27.88812 34.104,41.84996 57.52797,41.84996 56.31006,0 84.48002,-58.3021 84.48002,-174.91201 0,-51.317994 -4.48797,-94.686021 -13.43996,-130.0559742 -15.45602,-58.3140108 -41.61603,-87.4679808 -78.50405,-87.4679808 -54.834,0 -82.23,56.322007 -82.23,168.947873 v 14.202052 z"
       inkscape:connector-curvature="0"
       id="path389"
       style="fill:#0d0f0f" />
    <path
       d="m 881.50199,126.67782 c 0,-54.305815 11.44799,-104.399997 34.374,-150.245977 28.39199,-56.814028 67.27798,-85.218023 116.61601,-85.218023 48.822,0 86.94,24.17401 114.354,72.492005 22.908,39.8760404 34.374,86.238062 34.374,139.043925 0,54.84595 -11.4599,104.41204 -34.374,148.77008 -27.912,55.8061 -66.786,83.69389 -116.616,83.69389 -47.34599,0 -84.93601,-23.90391 -112.85402,-71.74193 -23.922,-40.86599 -35.87399,-86.44787 -35.87399,-136.79397 z m 62.76599,-24.65405 c 0,71.74192 10.71003,127.57218 32.16598,167.43608 14.92803,27.88812 34.10404,41.84996 57.52804,41.84996 56.31,0 84.48,-58.3021 84.48,-174.91201 0,-51.317994 -4.4879,-94.686021 -13.44,-130.0559742 -15.456,-58.3140108 -41.616,-87.4679808 -78.504,-87.4679808 -54.83402,0 -82.23002,56.322007 -82.23002,168.947873 v 14.202052 z"
       inkscape:connector-curvature="0"
       id="path391"
       style="fill:#0d0f0f" />
  </g>
</svg>
