<?xml version="1.0" encoding="UTF-8" standalone="no"?>
<!-- Created with Inkscape (http://www.inkscape.org/) -->

<svg
   xmlns:dc="http://purl.org/dc/elements/1.1/"
   xmlns:cc="http://creativecommons.org/ns#"
   xmlns:rdf="http://www.w3.org/1999/02/22-rdf-syntax-ns#"
   xmlns:svg="http://www.w3.org/2000/svg"
   xmlns="http://www.w3.org/2000/svg"
   xmlns:inkscape="http://www.inkscape.org/namespaces/inkscape"
   version="1.1"
   width="300"
   height="600"
   id="svg5725">
  <defs
     id="defs5727" />
  <metadata
     id="metadata5730">
    <rdf:RDF>
      <cc:Work
         rdf:about="">
        <dc:format>image/svg+xml</dc:format>
        <dc:type
           rdf:resource="http://purl.org/dc/dcmitype/StillImage" />
        <dc:title />
      </cc:Work>
    </rdf:RDF>
  </metadata>
  <g
     transform="translate(-367.1429,-318.0765)"
     id="layer1">
    <g
       transform="matrix(6,0,0,6,1051.1429,-2201.9235)"
       id="g369">
      <path
         d="m -114,420 c 0,33.023 0,67.188 0,100 27.613,0 50,-22.387 50,-50.002 C -64,442.385 -86.387,420 -114,420 z"
         inkscape:connector-curvature="0"
         id="path371"
         style="fill:#f8f6d8" />
    </g>
    <path
       d="m 475.13085,616.55227 c 0,-28.75802 -10.73401,-53.74185 -32.17798,-74.928 -21.084,-20.83789 -45.94799,-31.37387 -74.56797,-31.73387 0,71.08815 0,142.39193 0,213.3421 30.09594,-0.32878 55.35,-10.37417 75.70197,-30.22208 20.69403,-20.1599 31.04398,-45.67212 31.04398,-76.45815 z"
       inkscape:connector-curvature="0"
       id="path373"
       style="fill:#0d0f0f" />
    <path
       d="m 609.87287,596.12834 c -17.154,-25.24182 -32.56798,-37.86608 -46.18202,-37.86608 -11.09996,0 -19.18197,5.29796 -24.22198,15.91201 -5.05199,10.59626 -10.596,15.87611 -16.65001,15.87611 -8.59198,0 -15.396,-3.04788 -20.43597,-9.09598 -2.02804,-2.00418 -6.06002,-8.56793 -12.12003,-19.67413 l 25.74598,-18.16176 c 9.08403,-6.07226 13.62602,-12.62426 13.62602,-19.66211 0,-4.056 -1.27796,-10.362 -3.79802,-18.936 -2.53196,-8.57997 -3.78597,-14.62797 -3.78597,-18.16199 0,-7.57201 10.10398,-14.38801 30.29397,-20.43601 22.19402,-6.07199 38.85003,-10.59603 49.95602,-13.62602 -50.988,-9.084 -84.53999,-13.61998 -100.686,-13.61998 -25.734,0 -39.62398,3.53996 -41.634,10.59596 -0.49199,1.03205 -0.12614,5.58 1.14601,13.63806 1.25398,8.06396 1.88402,12.858 1.88402,14.36999 0,15.13798 -7.33805,22.70999 -21.94801,22.70999 -7.08002,0 -17.41199,-4.78199 -31.04401,-14.376 6.04797,-20.16604 6.552,-36.07201 1.51196,-47.682 -1.51196,-4.03199 -7.57194,-10.85402 -18.16196,-20.43605 -8.59202,-8.07597 -12.86998,-15.64194 -12.86998,-22.70998 0,-13.62602 10.85399,-35.07596 32.55601,-64.34996 -7.29003,3.18599 -22.23004,13.20596 -44.67,29.91598 0,45.33003 0,90.91204 0,136.68602 31.65,0.37792 59.16596,12.162 82.51196,35.50799 23.71802,23.71805 35.592,51.73801 35.592,84.02399 0.49199,34.32605 -10.73398,62.71806 -33.70198,85.15792 -22.62001,22.13423 -50.76602,33.30618 -84.39601,33.62992 0,45.5282 0,90.85813 0,135.83413 37.218,-26.83805 56.02801,-46.89597 56.02801,-60.07211 0,-2.51982 -4.686,-6.83381 -14.004,-12.87587 -9.35397,-6.05985 -14.01602,-14.12388 -14.01602,-24.22195 0,-20.17802 11.616,-32.05214 34.83001,-35.59217 11.616,26.76626 24.72602,40.12825 39.366,40.12825 3.02402,0 7.68601,-1.5241 14.00401,-4.53608 6.30596,-3.03613 10.46401,-4.5599 12.49198,-4.5599 14.62801,0 28.50001,25.75779 41.62803,77.22574 10.10398,-44.90387 15.13798,-78.22179 15.13798,-99.91184 0,-22.70992 -3.084,-34.08014 -9.282,-34.08014 -2.064,0 -6.198,0.77396 -12.38399,2.27424 -6.198,1.5117 -11.08798,2.27391 -14.69403,2.27391 -5.682,0 -12.64198,-3.77419 -20.892,-11.35814 -8.24999,-7.58395 -12.38399,-14.12992 -12.38399,-19.68587 0,-4.03218 4.80601,-13.34991 14.38803,-28.00788 17.15397,4.04392 28.51195,6.05985 34.06797,6.05985 13.62602,0 22.69801,-6.1501 27.246,-18.55193 4.56,-12.3542 10.86602,-18.55227 18.92401,-18.55227 11.10003,0 36.34198,11.11224 75.70201,33.30618 -20.20802,-28.75802 -35.10002,-50.20787 -44.67601,-64.32604 z"
       inkscape:connector-curvature="0"
       id="path375"
       style="fill:#0d0f0f" />
  </g>
</svg>
