<?xml version="1.0" encoding="UTF-8" standalone="no"?>
<!-- Created with Inkscape (http://www.inkscape.org/) -->

<svg
   xmlns:dc="http://purl.org/dc/elements/1.1/"
   xmlns:cc="http://creativecommons.org/ns#"
   xmlns:rdf="http://www.w3.org/1999/02/22-rdf-syntax-ns#"
   xmlns:svg="http://www.w3.org/2000/svg"
   xmlns="http://www.w3.org/2000/svg"
   xmlns:inkscape="http://www.inkscape.org/namespaces/inkscape"
   version="1.1"
   width="300"
   height="599.99994"
   id="svg3116">
  <defs
     id="defs3118" />
  <metadata
     id="metadata3121">
    <rdf:RDF>
      <cc:Work
         rdf:about="">
        <dc:format>image/svg+xml</dc:format>
        <dc:type
           rdf:resource="http://purl.org/dc/dcmitype/StillImage" />
        <dc:title />
      </cc:Work>
    </rdf:RDF>
  </metadata>
  <g
     transform="translate(-258.57143,-9.5050648)"
     id="layer1">
    <path
       d="m 388.63393,579.91131 c -4.37173,2.1066 -8.79486,4.1023 -13.28125,6 -4.48639,1.8977 -9.03023,3.6925 -13.625,5.375 9.18967,-3.3648 18.16273,-7.1619 26.90625,-11.375 z"
       inkscape:connector-curvature="0"
       id="path3114"
       style="fill:#c1d7e9" />
    <path
       d="m 258.57143,9.5050648 0,599.9999452 c 36.24369,0 70.99242,-6.4419 103.15625,-18.2187 4.59477,-1.6825 9.13861,-3.4773 13.625,-5.375 4.48639,-1.8977 8.90952,-3.8934 13.28125,-6 30.59545,-14.7424 58.31447,-34.5368 82.0625,-58.2813 3.39314,-3.3932 6.7093,-6.8543 9.9375,-10.4062 48.42208,-53.27615 77.9375,-124.05371 77.9375,-201.71875 0,-77.66504 -29.51542,-148.4426 -77.9375,-201.71875 -3.2282,-3.55161 -6.54436,-7.0133 -9.9375,-10.406245 C 416.40837,43.100135 341.40602,9.5050648 258.57143,9.5050648 z"
       inkscape:connector-curvature="0"
       id="circle149"
       style="fill:#c1d7e9" />
    <path
       d="m 258.57143,111.22381 0,444.375 c 41.49327,-0.2785 76.49181,-14.8364 104.9375,-43.7812 28.69804,-29.2021 43.04135,-65.09827 43.03125,-107.6563 0,-28.692 -9.97672,-58.14824 -29.96875,-88.40625 -12.82797,-17.41195 -31.54424,-44.08873 -56.15625,-79.96875 -19.99196,-30.24599 -29.96875,-61.26851 -29.96875,-93.0625 0,-13.842 3.568,-37.15476 10.75,-69.968745 -14.81561,12.19131 -28.97118,25.06987 -42.625,38.468745 z m 77.25,202.21875 c 10.25403,5.64596 19.22028,17.02152 26.90625,34.1875 7.69202,17.19601 11.53125,32.19598 11.53125,45 0,25.11601 -9.47748,37.6875 -28.4375,37.6875 -17.95198,0 -26.90625,-8.96627 -26.90625,-26.90625 l 9.96875,-30.78125 c 6.16197,-19.992 9.25,-35.35499 9.25,-46.125 0,-5.63999 -0.77649,-9.97856 -2.3125,-13.0625 z"
       inkscape:connector-curvature="0"
       id="path151"
       style="fill:#0d0f0f" />
  </g>
</svg>
