<?xml version="1.0" encoding="UTF-8" standalone="no"?>
<!-- Created with Inkscape (http://www.inkscape.org/) -->

<svg
   xmlns:dc="http://purl.org/dc/elements/1.1/"
   xmlns:cc="http://creativecommons.org/ns#"
   xmlns:rdf="http://www.w3.org/1999/02/22-rdf-syntax-ns#"
   xmlns:svg="http://www.w3.org/2000/svg"
   xmlns="http://www.w3.org/2000/svg"
   xmlns:inkscape="http://www.inkscape.org/namespaces/inkscape"
   version="1.1"
   width="300"
   height="599.99994"
   id="svg3184">
  <defs
     id="defs3186" />
  <metadata
     id="metadata3189">
    <rdf:RDF>
      <cc:Work
         rdf:about="">
        <dc:format>image/svg+xml</dc:format>
        <dc:type
           rdf:resource="http://purl.org/dc/dcmitype/StillImage" />
        <dc:title />
      </cc:Work>
    </rdf:RDF>
  </metadata>
  <g
     transform="translate(241.42857,-349.50506)"
     id="layer1">
    <path
       d="m -241.42857,349.50506 0,599.99995 c 165.701999,0 299.999999,-134.3412 299.999999,-300.0312 0,-165.678 -134.298,-299.96875 -299.999999,-299.96875 z"
       inkscape:connector-curvature="0"
       id="path131"
       style="fill:#a3c095" />
    <path
       d="m -241.42857,388.66131 0,524.7187 c 1.37329,-3.2862 3.43655,-7.3139 6.25,-12.1562 5.48402,-9.48 9.73799,-14.25 12.75,-14.25 2.98799,0 10.2107,4.77 21.71875,14.25 11.49599,9.48 21.49199,14.4648 30,14.9688 2.49604,-9.996 4.00798,-17.4768 4.5,-22.4688 l 9.75,0 c 2.484,0 7.59775,0.984 15.34375,3 7.752,1.992 13.863,3 18.375,3 16.98,0 25.468749,-3 25.468749,-9 l -20.968749,-10.5 c 17.484,-3.996 29.710749,-5.496 36.718749,-4.5 1.5,-5.004 -2.754,-9 -12.75,-12 -7.007999,-1.98 -13.738749,-3 -20.218749,-3 l -9,0 c -4.512,0.5041 -7.758,0.75 -9.75,0.75 -3,-0.498 -11.145,-2.883 -24.375,-7.125 -13.23002,-4.242 -21.96471,-9.4727 -26.21875,-15.7188 -4.25397,-6.2459 -6.375,-16.1489 -6.375,-29.625 0,-8.4959 1.48799,-21.7307 4.5,-39.7187 3.50399,-21.984 8.004,-35.9808 13.5,-41.96875 3.49198,-3.99602 16.98475,-9.25802 40.46875,-15.75 21.972,-6.49206 36.706749,-9.75 44.218749,-9.75 l 35.21875,1.5 c 7.476,14.98799 19.24675,22.5 35.21875,22.5 9.9959996,0 18.8909996,-4.008 26.6249996,-12 7.7460004,-8.00401 11.6250004,-16.96072 11.6250004,-26.96875 0,-14.48398 -6.504,-25.48675 -19.5000004,-32.96875 6.996,-15.978 10.5000004,-28.51201 10.5000004,-37.5 0,-31.98001 -16.0007504,-56.94949 -47.96875,-74.9375 3.984,-6.98397 6,-11.74206 6,-14.25 0,-13.50005 -5.52,-22.9487 -16.5,-28.46875 -7.5,-2.49597 -12.98875,-3.99604 -16.46875,-4.5 -5.004,-19.99203 -14.016,-36.47277 -27,-49.46875 -14.999999,-14.496 -32.242749,-21.71875 -51.718749,-21.71875 -5.52,0 -14.24274,1.12505 -26.21875,3.375 -5.32762,0.99462 -8.22111,1.66418 -10,2.21875 -0.59792,-1.03824 -3.16536,-4.06362 -9.5,-10.84375 -15.95676,-16.79342 -34.03811,-26.43816 -54.21875,-29.125 z m 49.71875,179 c 16.47599,7.488 27.75001,12.50403 33.75,15 0.98402,19.47599 -10.27796,35.96881 -33.75,49.46875 l 0,-64.46875 z m 58.46875,83.21875 16.46875,20.21875 c -26.46,5.00401 -50.95551,13.48796 -73.4375,25.5 7.47599,-8.98201 16.33978,-17.13304 26.59375,-24.375 10.25404,-7.24202 20.391,-14.34176 30.375,-21.34375 z"
       inkscape:connector-curvature="0"
       id="path133"
       style="fill:#0d0f0f" />
  </g>
</svg>
