<?xml version="1.0" encoding="UTF-8" standalone="no"?>
<!-- Created with Inkscape (http://www.inkscape.org/) -->

<svg
   xmlns:dc="http://purl.org/dc/elements/1.1/"
   xmlns:cc="http://creativecommons.org/ns#"
   xmlns:rdf="http://www.w3.org/1999/02/22-rdf-syntax-ns#"
   xmlns:svg="http://www.w3.org/2000/svg"
   xmlns="http://www.w3.org/2000/svg"
   xmlns:inkscape="http://www.inkscape.org/namespaces/inkscape"
   version="1.1"
   width="3047.9888"
   height="600"
   id="svg5502">
  <defs
     id="defs5504" />
  <metadata
     id="metadata5507">
    <rdf:RDF>
      <cc:Work
         rdf:about="">
        <dc:format>image/svg+xml</dc:format>
        <dc:type
           rdf:resource="http://purl.org/dc/dcmitype/StillImage" />
        <dc:title />
      </cc:Work>
    </rdf:RDF>
  </metadata>
  <g
     transform="translate(103.26729,313.2148)"
     id="layer1">
    <path
       d="m 2644.7216,-313.2148 h -2448.0007 0 c -165.677808,0 -299.98819,134.31005 -299.98819,299.98799 0,165.69022 134.310382,300.01201 299.98819,300.01201 h 0 2448.0007 c 165.678,0 300,-134.32179 300,-300.01201 0,-165.67794 -134.322,-299.98799 -300,-299.98799 z"
       inkscape:connector-curvature="0"
       id="path393"
       style="fill:#cac5c0" />
    <g
       transform="matrix(6.0000013,0,0,6.0000013,5566.722,-2833.2153)"
       id="g395">
      <path
         d="m -860.859,505.529 v -2.619 c 6.889,-0.75 10.33,-3.271 10.33,-7.564 0,-2.543 -0.973,-3.889 -2.918,-4.041 l -0.973,-0.074 c -2.797,-0.197 -4.195,-1.572 -4.195,-4.117 0,-1.445 0.438,-2.584 1.311,-3.406 0.875,-0.82 2.035,-1.234 3.482,-1.234 2.445,0 4.367,1.225 5.766,3.67 1.197,2.047 1.795,4.393 1.795,7.037 0,4.143 -1.447,7.287 -4.342,9.432 -2.547,1.842 -5.965,2.817 -10.256,2.916 z"
         inkscape:connector-curvature="0"
         id="path397"
         style="fill:#0d0f0f" />
    </g>
    <g
       transform="matrix(6.0000013,0,0,6.0000013,5566.722,-2833.2153)"
       id="g399">
      <path
         d="m -658.385,505.529 v -2.619 c 6.887,-0.75 10.33,-3.271 10.33,-7.564 0,-2.543 -0.971,-3.889 -2.92,-4.041 l -0.971,-0.074 c -2.795,-0.197 -4.193,-1.572 -4.193,-4.117 0,-1.445 0.438,-2.584 1.309,-3.406 0.875,-0.82 2.035,-1.234 3.482,-1.234 2.447,0 4.369,1.225 5.768,3.67 1.195,2.047 1.793,4.393 1.793,7.037 0,4.143 -1.447,7.287 -4.34,9.432 -2.547,1.842 -5.965,2.817 -10.258,2.916 z"
         inkscape:connector-curvature="0"
         id="path401"
         style="fill:#0d0f0f" />
    </g>
    <path
       d="m 2479.8956,-11.012615 c 0,-57.258076 12.15,-110.064145 36.48,-158.376135 30.126,-59.87998 71.4,-89.82603 123.75,-89.82603 51.798,0 92.262,25.47603 121.35,76.40402 24.306,42.03602 36.48,90.899848 36.48,146.555987 0,57.822024 -12.174,110.063941 -36.48,156.822033 -29.628,58.81808 -70.878,88.21789 -123.75,88.21789 -50.238,0 -90.1381,-25.19385 -119.766,-75.62382 -25.368,-43.062062 -38.064,-91.110092 -38.064,-144.173945 z m 66.612,-26.004043 c 0,75.623816 11.37,134.460008 34.134,176.484088 15.846,29.39981 36.198,44.12387 61.056,44.12387 59.754,0 89.634,-61.46404 89.634,-184.37399918 0,-54.09613782 -4.746,-99.81020082 -14.25,-137.10003082 -16.404,-61.452 -44.166,-92.19002 -83.322,-92.19002 -58.182,0 -87.258,59.37598 -87.258,178.080083 l 0.01,14.976009 0,0 z"
       inkscape:connector-curvature="0"
       id="path403"
       style="fill:#0d0f0f" />
    <path
       d="m 2113.8955,-11.012615 c 0,-57.258076 12.138,-110.064145 36.468,-158.376135 30.138,-59.87998 71.412,-89.82603 123.75,-89.82603 51.798,0 92.2741,25.47603 121.362,76.40402 24.3061,42.03602 36.4681,90.899848 36.4681,146.555987 0,57.822024 -12.162,110.063941 -36.4681,156.822033 -29.6279,58.81808 -70.878,88.21789 -123.75,88.21789 -50.25,0 -90.138,-25.19385 -119.766,-75.62382 -25.38,-43.062062 -38.064,-91.110092 -38.064,-144.173945 z m 66.612,-26.004043 c 0,75.623816 11.37,134.460008 34.128,176.484088 15.846,29.39981 36.21,44.12387 61.056,44.12387 59.766,0 89.646,-61.46404 89.646,-184.37399918 0,-54.09613782 -4.7579,-99.81020082 -14.25,-137.10003082 -16.404,-61.452 -44.178,-92.19002 -83.322,-92.19002 -58.194,0 -87.258,59.37598 -87.258,178.080083 v 14.976009 l 0,0 z"
       inkscape:connector-curvature="0"
       id="path405"
       style="fill:#0d0f0f" />
    <path
       d="m 1745.9995,-11.012615 c 0,-57.258076 12.1618,-110.064145 36.4919,-158.376135 30.12,-59.87998 71.3879,-89.82603 123.75,-89.82603 51.7981,0 92.2501,25.47603 121.3381,76.40402 24.306,42.03602 36.492,90.899848 36.492,146.555987 0,57.822024 -12.186,110.063941 -36.492,156.822033 -29.628,58.81808 -70.8781,88.21789 -123.75,88.21789 -50.2259,0 -90.1379,-25.19385 -119.7661,-75.62382 -25.3621,-43.062062 -38.0639,-91.110092 -38.0639,-144.173945 z m 66.606,-26.004043 c 0,75.623816 11.3699,134.460008 34.1461,176.484088 15.8459,29.39981 36.1858,44.12387 61.0558,44.12387 59.7421,0 89.628,-61.46404 89.628,-184.37399918 0,-54.09613782 -4.7339,-99.81020082 -14.25,-137.10003082 -16.4039,-61.452 -44.154,-92.19002 -83.3219,-92.19002 -58.1699,0 -87.258,59.37598 -87.258,178.080083 v 14.976009 l 0,0 z"
       inkscape:connector-curvature="0"
       id="path407"
       style="fill:#0d0f0f" />
    <path
       d="m 1257.8876,-11.012615 c 0,-57.258076 12.1613,-110.064145 36.4916,-158.376135 30.1201,-59.87998 71.3883,-89.82603 123.75,-89.82603 51.7981,0 92.2498,25.47603 121.3382,76.40402 24.3062,42.03602 36.492,90.899848 36.492,146.555987 0,57.822024 -12.1858,110.063941 -36.492,156.822033 -29.6219,58.81808 -70.8723,88.21789 -123.75,88.21789 -50.2263,0 -90.1378,-25.19385 -119.7661,-75.62382 -25.3559,-43.062062 -38.0637,-91.110092 -38.0637,-144.173945 z m 66.6117,-26.004043 c 0,75.623816 11.3699,134.460008 34.1459,176.484088 15.8463,29.39981 36.1863,44.12387 61.0564,44.12387 59.7417,0 89.6276,-61.46404 89.6276,-184.37399918 0,-54.09613782 -4.734,-99.81020082 -14.25,-137.10003082 -16.4038,-61.452 -44.1534,-92.19002 -83.3218,-92.19002 -58.17,0 -87.2581,59.37598 -87.2581,178.080083 v 14.976009 l 0,0 z"
       inkscape:connector-curvature="0"
       id="path409"
       style="fill:#0d0f0f" />
    <path
       d="m 891.8872,-11.012615 c 0,-57.258076 12.14989,-110.064145 36.48021,-158.376135 30.12613,-59.87998 71.39973,-89.82603 123.74969,-89.82603 51.7981,0 92.2621,25.47603 121.3499,76.40402 24.3065,42.03602 36.4682,90.899848 36.4682,146.555987 0,57.822024 -12.1617,110.063941 -36.4682,156.822033 -29.6219,58.81808 -70.872,88.21789 -123.7496,88.21789 -50.23844,0 -90.13823,-25.19385 -119.76617,-75.62382 C 904.58326,90.099268 891.8872,42.051238 891.8872,-11.012615 z m 66.61204,-26.004043 c 0,75.623816 11.3699,134.460008 34.13383,176.484088 15.84623,29.39981 36.19803,44.12387 61.05613,44.12387 59.754,0 89.6339,-61.46404 89.6339,-184.37399918 0,-54.09613782 -4.7457,-99.81020082 -14.2497,-137.10003082 -16.4041,-61.452 -44.1661,-92.19002 -83.3221,-92.19002 -58.18236,0 -87.25776,59.37598 -87.25776,178.080083 l 0,14.976009 0,0 z"
       inkscape:connector-curvature="0"
       id="path411"
       style="fill:#0d0f0f" />
    <path
       d="m 524.00307,-11.012615 c 0,-57.258076 12.14989,-110.064145 36.4802,-158.376135 30.12614,-59.87998 71.39974,-89.82603 123.74968,-89.82603 51.79807,0 92.26249,25.47603 121.3503,76.40402 24.30582,42.03602 36.47987,90.899848 36.47987,146.555987 0,57.822024 -12.17405,110.063941 -36.47987,156.822033 -29.62794,58.81808 -70.87839,88.21789 -123.75001,88.21789 -50.23808,0 -90.1382,-25.19385 -119.76615,-75.62382 -25.374,-43.062062 -38.06402,-91.110092 -38.06402,-144.173945 z m 66.60634,-26.004043 c 0,75.623816 11.36989,134.460008 34.13383,176.484088 15.84592,29.39981 36.19806,44.12387 61.05609,44.12387 59.75374,0 89.63397,-61.46404 89.63397,-184.37399918 0,-54.09613782 -4.74576,-99.81020082 -14.25036,-137.10003082 -16.4035,-61.452 -44.16548,-92.19002 -83.32184,-92.19002 -58.18199,0 -87.25806,59.37598 -87.25806,178.080083 l 0,14.976009 0,0 z"
       inkscape:connector-curvature="0"
       id="path413"
       style="fill:#0d0f0f" />
    <path
       d="m 267.47886,-259.20277 v 375.03602 c 0,44.87401 19.35038,67.29005 58.11657,67.29005 h 10.10378 v 25.67393 H 131.04486 V 183.1233 h 12.84602 c 37.47592,0 56.20231,-22.41604 56.20231,-67.29005 v -246.024 c 0,-45.37798 -16.17,-68.11199 -48.48014,-68.11199 h -20.56819 v -24.84602 h 7.41621 c 39.96018,0 76.14616,-12.03603 108.48012,-36.07199 h 20.53767 v 0.0168 z"
       inkscape:connector-curvature="0"
       id="path415"
       style="fill:#0d0f0f" />
  </g>
</svg>
