<?xml version="1.0" encoding="UTF-8" standalone="no"?>
<!-- Created with Inkscape (http://www.inkscape.org/) -->

<svg
   xmlns:dc="http://purl.org/dc/elements/1.1/"
   xmlns:cc="http://creativecommons.org/ns#"
   xmlns:rdf="http://www.w3.org/1999/02/22-rdf-syntax-ns#"
   xmlns:svg="http://www.w3.org/2000/svg"
   xmlns="http://www.w3.org/2000/svg"
   xmlns:inkscape="http://www.inkscape.org/namespaces/inkscape"
   version="1.1"
   width="300"
   height="600"
   id="svg3240">
  <defs
     id="defs3242" />
  <metadata
     id="metadata3245">
    <rdf:RDF>
      <cc:Work
         rdf:about="">
        <dc:format>image/svg+xml</dc:format>
        <dc:type
           rdf:resource="http://purl.org/dc/dcmitype/StillImage" />
        <dc:title />
      </cc:Work>
    </rdf:RDF>
  </metadata>
  <g
     transform="translate(-575.71429,-306.6479)"
     id="layer1">
    <path
       d="m 787.83929,818.7417 c -3.39314,3.3935 -6.85446,6.7089 -10.40625,9.9374 -3.55179,3.2286 -7.20209,6.3802 -10.90625,9.4376 7.41406,-6.1187 14.52151,-12.583 21.3125,-19.375 z"
       inkscape:connector-curvature="0"
       id="path3225"
       style="fill:#bab1ab" />
    <path
       d="m 575.71429,306.6479 0,600 c 72.48737,0 138.95481,-25.7345 190.8125,-68.5312 3.70416,-3.0574 7.35446,-6.209 10.90625,-9.4376 3.55179,-3.2285 7.01311,-6.5439 10.40625,-9.9374 54.27993,-54.2881 87.875,-129.25922 87.875,-212.0938 0,-88.02038 -37.90162,-167.21539 -98.28125,-222.09375 -10.65523,-9.68442 -22.02992,-18.60067 -34,-26.6875 C 695.55273,325.51935 637.84632,306.6479 575.71429,306.6479 z"
       inkscape:connector-curvature="0"
       id="circle143"
       style="fill:#bab1ab" />
    <path
       d="m 575.71429,353.17915 0,364.18755 c 1.74603,-1.273 2.625,-4.5498 2.625,-9.9063 l 8.28125,-88.03125 c 8.02799,18.06601 13.55052,32.11227 16.5625,42.15625 3.50403,7.03198 7.02722,13.79646 10.53125,20.3125 l 0,23.3438 c 0,27.0779 -2.51526,40.5937 -7.53125,40.5937 -11.6747,-5.1853 -21.78608,-8.0045 -30.46875,-8.7187 l 0,38.0937 2.59375,0 c 4.01997,-0.474 6.54724,0.504 7.53125,3 l 0,53.4375 c -0.98401,0 0.26524,0.5041 3.78125,1.5 15.04796,-10.032 26.84297,-18.0697 35.375,-24.0938 0.49198,-6.0239 -0.27727,-13.2804 -2.28125,-21.8124 -0.50403,-4.0081 0.0145,-7.2733 1.5625,-9.7813 l 11.6875,0 c 6.23399,16.044 9.34375,25.8325 9.34375,29.3125 0,2.532 -0.66432,6.3085 -1.90625,11.3125 -1.24803,5.022 -1.875,8.7853 -1.875,11.2813 0,5.5319 2.01127,15.809 6.03125,30.875 12.53999,-2.538 23.56573,-4.7774 33.09375,-6.7813 3.51597,-17.04 5.28125,-29.345 5.28125,-36.875 l -2.25,-24.0937 c -1.50002,-13.0441 -2.25,-20.8118 -2.25,-23.3438 l 0,-60.9375 c 0,-14.53199 12.02173,-23.82381 36.09375,-27.84375 37.12198,-6.02402 59.18678,-10.76528 66.21875,-14.28125 24.07202,-12.036 36.125,-34.61074 36.125,-67.71875 l 0,-6.03125 c -0.50409,-5.00401 -0.75,-13.28773 -0.75,-24.84375 -5.532,-33.10797 -16.33098,-63.92325 -32.375,-92.53125 -5.53199,-9.50399 -12.78848,-20.33901 -21.8125,-32.375 -12.03599,-16.04402 -20.08576,-24.0625 -24.09375,-24.0625 3.50399,0 -6.27976,5.01121 -29.34375,15.03125 -23.06999,10.05596 -40.60821,14.81653 -52.65625,14.3125 30.594,-16.55396 52.15952,-32.1002 64.6875,-46.65625 -37.74728,-31.37882 -87.07147,-47.31993 -147.8125,-48.03125 z m 133.5625,169.1875 c 19.54201,0 36.84627,7.98698 51.90625,23.875 15.048,15.9 22.59375,33.923 22.59375,54.125 0,24.75 -16.33949,37.38302 -48.9375,37.875 l -86.53125,0 c -17.06399,0 -25.5625,-8.77576 -25.5625,-26.34375 0,-21.07205 9.15072,-41.24849 27.46875,-60.5625 18.30603,-19.31399 37.99048,-28.96875 59.0625,-28.96875 z"
       inkscape:connector-curvature="0"
       id="path145"
       style="fill:#0d0f0f" />
  </g>
</svg>
