<?xml version="1.0" encoding="UTF-8" standalone="no"?>
<!-- Created with Inkscape (http://www.inkscape.org/) -->

<svg
   xmlns:dc="http://purl.org/dc/elements/1.1/"
   xmlns:cc="http://creativecommons.org/ns#"
   xmlns:rdf="http://www.w3.org/1999/02/22-rdf-syntax-ns#"
   xmlns:svg="http://www.w3.org/2000/svg"
   xmlns="http://www.w3.org/2000/svg"
   xmlns:inkscape="http://www.inkscape.org/namespaces/inkscape"
   version="1.1"
   width="300"
   height="600"
   id="svg5706">
  <defs
     id="defs5708" />
  <metadata
     id="metadata5711">
    <rdf:RDF>
      <cc:Work
         rdf:about="">
        <dc:format>image/svg+xml</dc:format>
        <dc:type
           rdf:resource="http://purl.org/dc/dcmitype/StillImage" />
        <dc:title />
      </cc:Work>
    </rdf:RDF>
  </metadata>
  <g
     transform="translate(-801.4286,-72.3622)"
     id="layer1">
    <g
       transform="matrix(6,0,0,6,1155.4286,-2447.6378)"
       id="g377">
      <path
         d="m -59,420 c 0,33.334 0,66.666 0,100 27.613,0 50,-22.387 50,-50 0,-27.615 -22.387,-50 -50,-50 z"
         inkscape:connector-curvature="0"
         id="path379"
         style="fill:#e49977" />
    </g>
    <path
       d="m 1009.5506,481.23207 c -8.67,4.08015 -27,9.93603 -55.00798,17.56795 7.63799,-11.76576 21.88798,-28.37993 42.77397,-49.87775 20.86201,-21.49211 35.15401,-39.13823 42.77401,-52.95615 11.694,-20.44809 17.58,-43.21806 17.58,-68.28609 0,-47.57986 -20.904,-97.99187 -62.646,-151.19386 6.612,16.51202 11.46,28.90795 14.532,37.15797 8.13,21.16203 12.21,38.71801 12.21,52.662 0,10.83 -2.814,18.58793 -8.412,23.226 C 982.55661,178.32217 912.08061,119.73818 802.06459,113.67813 c 0,9.13801 0,18.31806 0,27.46799 18.09601,5.95205 27.23399,13.38004 27.23399,22.35001 0,4.00803 -9.18599,8.29803 -27.23399,12.85803 0,7.66202 0,15.33001 0,22.99199 0.13789,0.0101 0.39601,0.06 0.51601,0.06 11.694,0 24.67797,-3.83401 38.95198,-11.46003 14.22603,-7.63797 24.91203,-11.46 32.06402,-11.46 15.25801,0 27.75003,7.89602 37.42797,23.68202 8.64603,13.24199 12.98404,28.00801 12.98404,44.29801 0,12.72602 -3.07203,19.09196 -9.16201,19.09196 -4.59599,0 -11.20201,-6.36594 -19.87799,-19.09196 -6.12,-9.66603 -10.68601,-16.80604 -13.73402,-21.38398 -1.03198,3.58793 -1.524,7.134 -1.524,10.69794 0,21.38399 9.79801,41.22602 29.38803,59.56811 19.58999,18.35399 40.10396,28.00788 61.49999,29.03983 -1.03201,13.74612 -4.59599,28.00822 -10.68604,42.76214 -7.14597,19.36179 -15.30598,30.82192 -24.44396,34.37402 -6.12,-6.10815 -9.16201,-14.75425 -9.16201,-25.95606 0,-5.08795 1.638,-12.99598 4.944,-23.68215 3.33001,-10.68584 4.96801,-18.34192 4.96801,-22.90786 -5.08798,2.04008 -10.83002,7.51216 -17.17802,16.42798 -6.37802,8.90409 -10.05597,16.40417 -11.06399,22.52407 -3.56402,21.37804 -4.596,39.71392 -3.072,54.98381 1.52397,13.25431 -4.07999,28.00822 -16.806,44.31006 -12.72598,16.2901 -25.70999,24.43196 -38.95198,24.43196 -8.67005,0 -16.54802,-1.78175 -23.67004,-5.34594 -9.162,-4.58405 -13.758,-10.69791 -13.758,-18.34191 0,-12.20995 10.94399,-24.67821 32.83802,-37.41587 30.564,-18.33017 48.39602,-54.22226 53.484,-107.69406 1.524,0 -11.71799,7.76981 -39.726,23.29769 -21.44401,11.90432 -40.17002,19.19405 -56.25001,21.98427 0,86.74208 0,173.47207 0,260.21382 63.39602,-4.11572 111.23399,-15.53996 143.32203,-34.34988 -7.638,0 -26.48401,-0.38413 -56.53201,-1.14601 -30.02397,-0.76189 -38.69402,-1.14601 -25.94402,-1.14601 -2.55598,0 -5.62798,-1.63784 -9.162,-4.95611 -3.588,-3.31794 -5.346,-6.23396 -5.346,-8.77794 0,-8.14186 10.686,-14.53182 32.06401,-19.11588 14.24999,-3.04821 27.51597,-4.57197 39.72601,-4.57197 66.702,0 111.23399,-26.73003 133.66199,-80.20216 5.604,-13.22981 8.388,-23.16584 8.388,-29.78997 -15.798,17.28615 -33.354,30.28213 -52.692,38.93393 z"
       inkscape:connector-curvature="0"
       id="path381"
       style="fill:#0d0f0f" />
  </g>
</svg>
