<?xml version="1.0" encoding="UTF-8" standalone="no"?>
<!-- Created with Inkscape (http://www.inkscape.org/) -->

<svg
   xmlns:dc="http://purl.org/dc/elements/1.1/"
   xmlns:cc="http://creativecommons.org/ns#"
   xmlns:rdf="http://www.w3.org/1999/02/22-rdf-syntax-ns#"
   xmlns:svg="http://www.w3.org/2000/svg"
   xmlns="http://www.w3.org/2000/svg"
   xmlns:inkscape="http://www.inkscape.org/namespaces/inkscape"
   version="1.1"
   width="600"
   height="1094.5919"
   id="svg4773">
  <defs
     id="defs4775">
    <linearGradient
       x1="0"
       y1="0"
       x2="1"
       y2="0"
       id="linearGradient400"
       gradientUnits="userSpaceOnUse"
       gradientTransform="matrix(0,30.469727,30.469727,0,749.02832,471.94775)"
       spreadMethod="pad">
      <stop
         id="stop402"
         style="stop-color:#8d742f;stop-opacity:1"
         offset="0" />
      <stop
         id="stop404"
         style="stop-color:#b39a54;stop-opacity:1"
         offset="0.30000299" />
      <stop
         id="stop406"
         style="stop-color:#d7bd74;stop-opacity:1"
         offset="0.5" />
      <stop
         id="stop408"
         style="stop-color:#b39a54;stop-opacity:1"
         offset="0.69999701" />
      <stop
         id="stop410"
         style="stop-color:#8d742f;stop-opacity:1"
         offset="1" />
    </linearGradient>
  </defs>
  <metadata
     id="metadata4778">
    <rdf:RDF>
      <cc:Work
         rdf:about="">
        <dc:format>image/svg+xml</dc:format>
        <dc:type
           rdf:resource="http://purl.org/dc/dcmitype/StillImage" />
        <dc:title />
      </cc:Work>
    </rdf:RDF>
  </metadata>
  <path
     d="M 176.36596,0 183.0156,71.53147 0,71.83358 106.99626,665.43022 196.69798,213.14527 293.54191,1094.592 441.03804,245.32624 552.00219,517.79728 600,0.0011 l -423.63404,0 z"
     inkscape:connector-curvature="0"
     id="path396"
     style="fill:#000000;fill-opacity:1;fill-rule:nonzero;stroke:none" />
  <g
     transform="matrix(27.364772,0,0,-27.364772,-20168.904,13784.265)"
     id="g398">
    <path
       d="m 748.184,502.348 -0.129,-30.403 4.48,26.707 3.793,-8.933 1.281,12.699 -9.425,-0.07 z m -7.739,-2.539 0.621,-14.36 c 0,0 0.321,1.227 0.438,1.852 l 0,0 c 0.812,4.179 2.496,12.527 2.496,12.527 l 0,0 -3.555,-0.019 z"
       inkscape:connector-curvature="0"
       id="path412"
       style="fill:url(#linearGradient400);fill-opacity:1;fill-rule:nonzero;stroke:none" />
  </g>
</svg>
