<?xml version="1.0" encoding="UTF-8" standalone="no"?>
<!-- Created with Inkscape (http://www.inkscape.org/) -->

<svg
   xmlns:dc="http://purl.org/dc/elements/1.1/"
   xmlns:cc="http://creativecommons.org/ns#"
   xmlns:rdf="http://www.w3.org/1999/02/22-rdf-syntax-ns#"
   xmlns:svg="http://www.w3.org/2000/svg"
   xmlns="http://www.w3.org/2000/svg"
   xmlns:inkscape="http://www.inkscape.org/namespaces/inkscape"
   version="1.1"
   width="600"
   height="1094.5919"
   id="svg4704">
  <defs
     id="defs4706">
    <linearGradient
       x1="0"
       y1="0"
       x2="1"
       y2="0"
       id="linearGradient382"
       gradientUnits="userSpaceOnUse"
       gradientTransform="matrix(0,30.469727,30.469727,0,666.52832,471.94775)"
       spreadMethod="pad">
      <stop
         id="stop384"
         style="stop-color:#626e77;stop-opacity:1"
         offset="0" />
      <stop
         id="stop386"
         style="stop-color:#a0b6c2;stop-opacity:1"
         offset="0.30000299" />
      <stop
         id="stop388"
         style="stop-color:#b7d1e1;stop-opacity:1"
         offset="0.5" />
      <stop
         id="stop390"
         style="stop-color:#a0b6c2;stop-opacity:1"
         offset="0.69999701" />
      <stop
         id="stop392"
         style="stop-color:#626e77;stop-opacity:1"
         offset="1" />
    </linearGradient>
  </defs>
  <metadata
     id="metadata4709">
    <rdf:RDF>
      <cc:Work
         rdf:about="">
        <dc:format>image/svg+xml</dc:format>
        <dc:type
           rdf:resource="http://purl.org/dc/dcmitype/StillImage" />
        <dc:title />
      </cc:Work>
    </rdf:RDF>
  </metadata>
  <path
     d="M 176.36596,0 183.0156,71.53147 0,71.83358 106.99626,665.43022 196.69798,213.14527 293.54191,1094.592 441.03804,245.32624 552.00219,517.79728 600,0.0011 l -423.63404,0 z"
     inkscape:connector-curvature="0"
     id="path378"
     style="fill:#000000;fill-opacity:1;fill-rule:nonzero;stroke:none" />
  <g
     transform="matrix(27.364772,0,0,-27.364772,-17911.311,13784.265)"
     id="g380">
    <path
       d="m 665.688,502.348 -0.133,-30.403 4.48,26.707 3.793,-8.933 1.281,12.699 -9.421,-0.07 z m -7.743,-2.539 0.621,-14.36 c 0,0 0.325,1.227 0.438,1.852 l 0,0 c 0.808,4.179 2.496,12.527 2.496,12.527 l 0,0 -3.555,-0.019 z"
       inkscape:connector-curvature="0"
       id="path394"
       style="fill:url(#linearGradient382);fill-opacity:1;fill-rule:nonzero;stroke:none" />
  </g>
</svg>
