<?xml version="1.0" encoding="UTF-8" standalone="no"?>
<!-- Created with Inkscape (http://www.inkscape.org/) -->

<svg
   xmlns:dc="http://purl.org/dc/elements/1.1/"
   xmlns:cc="http://creativecommons.org/ns#"
   xmlns:rdf="http://www.w3.org/1999/02/22-rdf-syntax-ns#"
   xmlns:svg="http://www.w3.org/2000/svg"
   xmlns="http://www.w3.org/2000/svg"
   xmlns:xlink="http://www.w3.org/1999/xlink"
   xmlns:inkscape="http://www.inkscape.org/namespaces/inkscape"
   version="1.1"
   width="600"
   height="510.44415"
   id="svg4202">
  <defs
     id="defs4204">
    <linearGradient
       x1="0"
       y1="0"
       x2="1"
       y2="0"
       id="linearGradient266"
       gradientUnits="userSpaceOnUse"
       gradientTransform="matrix(24.592056,24.592056,24.592056,-24.592056,483.96973,471.42432)"
       spreadMethod="pad">
      <stop
         id="stop268"
         style="stop-color:#bb2c26;stop-opacity:1"
         offset="0" />
      <stop
         id="stop270"
         style="stop-color:#f7981d;stop-opacity:1"
         offset="0.149994" />
      <stop
         id="stop272"
         style="stop-color:#e07823;stop-opacity:1"
         offset="0.30000299" />
      <stop
         id="stop274"
         style="stop-color:#bb2c26;stop-opacity:1"
         offset="0.5" />
      <stop
         id="stop276"
         style="stop-color:#e07823;stop-opacity:1"
         offset="0.69999701" />
      <stop
         id="stop278"
         style="stop-color:#f7981d;stop-opacity:1"
         offset="0.85000598" />
      <stop
         id="stop280"
         style="stop-color:#bb2c26;stop-opacity:1"
         offset="1" />
    </linearGradient>
    <linearGradient
       x1="0"
       y1="0"
       x2="1"
       y2="0"
       id="linearGradient2997"
       xlink:href="#linearGradient266"
       gradientUnits="userSpaceOnUse"
       gradientTransform="matrix(24.592056,24.592056,24.592056,-24.592056,483.96973,471.42432)"
       spreadMethod="pad" />
    <linearGradient
       x1="0"
       y1="0"
       x2="1"
       y2="0"
       id="linearGradient3000"
       xlink:href="#linearGradient266"
       gradientUnits="userSpaceOnUse"
       gradientTransform="matrix(350.63885,-350.63885,350.63885,350.63885,124.68425,430.52194)"
       spreadMethod="pad" />
  </defs>
  <metadata
     id="metadata4207">
    <rdf:RDF>
      <cc:Work
         rdf:about="">
        <dc:format>image/svg+xml</dc:format>
        <dc:type
           rdf:resource="http://purl.org/dc/dcmitype/StillImage" />
        <dc:title />
      </cc:Work>
    </rdf:RDF>
  </metadata>
  <path
     d="m 278.67684,504.74086 c -78.81942,0 -150.60954,-32.80816 -202.124477,-92.2364 C 32.209311,361.27469 5.7032866,292.59286 5.7032866,228.77309 c 0,-112.56862 56.4767944,-155.400303 58.8721754,-157.182583 3.83546,-2.83738 8.46938,-4.27746 13.032009,-4.27746 4.56263,0 9.182292,1.44008 13.03201,4.27746 7.799244,5.68903 10.921789,15.76959 7.799244,24.89485 -0.114065,0.39923 -13.474014,39.609323 -13.474014,70.635203 0,99.29422 66.158119,150.82341 105.653379,172.70977 l 0,-52.35617 c 0,-35.1465 -64.27604,-66.50032 -86.7755,-74.68453 -7.072076,-2.62352 -12.361874,-8.69752 -13.987311,-16.0405 -1.611178,-7.41427 0.726599,-15.09945 6.074,-20.38925 L 263.29222,12.005417 c 4.17766,-4.1206204 9.75262,-6.3021304 15.38462,-6.3021304 2.89442,0 5.78883,0.49847 8.56919,1.66821 6.3449,2.6805504 11.03585,8.1984804 12.70407,14.6574504 2.50944,-9.41042 11.07863,-16.3256604 21.33029,-16.3256604 78.86219,0 150.59528,32.6940904 202.12447,92.1223404 44.38583,51.244033 70.89185,119.968633 70.89185,183.802663 0,112.55436 -56.53382,155.38604 -58.87217,157.16832 -3.89249,2.83738 -8.45512,4.23469 -13.08904,4.29172 -4.56263,0 -9.12526,-1.45434 -13.03201,-4.34875 -7.74222,-5.67477 -10.90754,-15.75533 -7.79925,-24.89485 0.1711,-0.32737 13.48827,-39.59507 13.48827,-70.62094 0,-100.19249 -66.05831,-151.32245 -105.65338,-172.93791 l 0,52.58431 c 0,32.69409 58.41591,64.48991 86.77551,74.74157 7.1291,2.56647 12.36187,8.62622 13.97305,16.04049 1.61118,7.35724 -0.67071,15.04242 -6.074,20.33222 L 336.70778,498.39595 c -4.23469,4.12063 -9.80965,6.34491 -15.42739,6.34491 -2.89442,0 -5.78884,-0.61253 -8.52642,-1.72524 -6.40193,-2.72332 -11.0216,-8.18422 -12.74684,-14.64319 -2.50945,9.41042 -11.09289,16.36843 -21.33029,16.36843"
     inkscape:connector-curvature="0"
     id="path262"
     style="fill:#000000;fill-opacity:1;fill-rule:nonzero;stroke:#ffffff;stroke-width:11.4065733;stroke-opacity:1" />
  <path
     d="M 321.28039,482.68306 488.5863,318.27157 c 0,0 -101.2476,-36.64362 -101.2476,-95.40173 l 0,0 0,-86.56163 c 0,0 149.71128,48.46368 149.71128,206.91524 l 0,0 c 0,35.26056 -14.71448,77.80708 -14.71448,77.80708 l 0,0 c 0,0 49.90375,-36.64362 49.90375,-139.40258 l 0,0 c 0,-113.06765 -90.99593,-253.924573 -250.95886,-253.924573 l 0,0 0,454.979683 z M 111.35667,192.0721 c 0,0 101.31888,36.70064 101.31888,95.40172 l 0,0 0,86.6044 c 0,0 -149.711267,-48.44941 -149.711267,-206.958 l 0,0 c 0,-35.20354 14.643188,-77.807093 14.643188,-77.807093 l 0,0 c 0,0 -49.903757,36.700653 -49.903757,139.459613 l 0,0 c 0,113.01063 91.010196,253.91032 250.973126,253.91032 l 0,0 0,-454.979683 L 111.35667,192.0721 z"
     inkscape:connector-curvature="0"
     id="path282"
     style="fill:url(#linearGradient3000);fill-opacity:1;fill-rule:nonzero;stroke:none" />
</svg>
