<?xml version="1.0" encoding="UTF-8" standalone="no"?>
<!-- Created with Inkscape (http://www.inkscape.org/) -->

<svg
   xmlns:dc="http://purl.org/dc/elements/1.1/"
   xmlns:cc="http://creativecommons.org/ns#"
   xmlns:rdf="http://www.w3.org/1999/02/22-rdf-syntax-ns#"
   xmlns:svg="http://www.w3.org/2000/svg"
   xmlns="http://www.w3.org/2000/svg"
   xmlns:xlink="http://www.w3.org/1999/xlink"
   xmlns:inkscape="http://www.inkscape.org/namespaces/inkscape"
   version="1.1"
   width="600"
   height="576"
   id="svg3303">
  <defs
     id="defs3305">
    <linearGradient
       x1="0"
       y1="0"
       x2="1"
       y2="0"
       id="linearGradient3409"
       gradientUnits="userSpaceOnUse"
       gradientTransform="matrix(-170.50069,-119.49944,-119.49944,170.50069,238.35742,199.02051)"
       spreadMethod="pad">
      <stop
         id="stop3411"
         style="stop-color:#8f743f;stop-opacity:1"
         offset="0" />
      <stop
         id="stop3413"
         style="stop-color:#ebd491;stop-opacity:1"
         offset="0.46751401" />
      <stop
         id="stop3415"
         style="stop-color:#8f743f;stop-opacity:1"
         offset="1" />
    </linearGradient>
    <linearGradient
       x1="0"
       y1="0"
       x2="1"
       y2="0"
       id="linearGradient3387"
       gradientUnits="userSpaceOnUse"
       gradientTransform="matrix(-170.50069,-119.49944,-119.49944,170.50069,231.86523,208.28418)"
       spreadMethod="pad">
      <stop
         id="stop3389"
         style="stop-color:#8f743f;stop-opacity:1"
         offset="0" />
      <stop
         id="stop3391"
         style="stop-color:#ebd491;stop-opacity:1"
         offset="0.46751401" />
      <stop
         id="stop3393"
         style="stop-color:#8f743f;stop-opacity:1"
         offset="1" />
    </linearGradient>
    <clipPath
       id="clipPath3367">
      <path
         d="M 0,288 300,288 300,0 0,0 0,288 z"
         inkscape:connector-curvature="0"
         id="path3369" />
    </clipPath>
    <clipPath
       id="clipPath3353">
      <path
         d="M 289.462,0 300,0 l 0,288 -10.538,0 0,-288 z"
         inkscape:connector-curvature="0"
         id="path3355" />
    </clipPath>
    <clipPath
       id="clipPath3339">
      <path
         d="M 0,0 300,0 300,288 0,288 0,0 z"
         inkscape:connector-curvature="0"
         id="path3341" />
    </clipPath>
    <clipPath
       id="clipPath3325">
      <path
         d="M 0,288 0,0 10.378,0 13.834,288 0,288 z"
         inkscape:connector-curvature="0"
         id="path3327" />
    </clipPath>
    <linearGradient
       x1="0"
       y1="0"
       x2="1"
       y2="0"
       id="linearGradient3024"
       xlink:href="#linearGradient3409"
       gradientUnits="userSpaceOnUse"
       gradientTransform="matrix(-170.50069,-119.49944,-119.49944,170.50069,238.35742,199.02051)"
       spreadMethod="pad" />
    <linearGradient
       x1="0"
       y1="0"
       x2="1"
       y2="0"
       id="linearGradient3029"
       xlink:href="#linearGradient3387"
       gradientUnits="userSpaceOnUse"
       gradientTransform="matrix(-170.50069,-119.49944,-119.49944,170.50069,231.86523,208.28418)"
       spreadMethod="pad" />
    <linearGradient
       x1="0"
       y1="0"
       x2="1"
       y2="0"
       id="linearGradient3037"
       xlink:href="#linearGradient3387"
       gradientUnits="userSpaceOnUse"
       gradientTransform="matrix(-170.50069,-119.49944,-119.49944,170.50069,231.86523,208.28418)"
       spreadMethod="pad" />
    <linearGradient
       x1="0"
       y1="0"
       x2="1"
       y2="0"
       id="linearGradient3041"
       xlink:href="#linearGradient3409"
       gradientUnits="userSpaceOnUse"
       gradientTransform="matrix(-170.50069,-119.49944,-119.49944,170.50069,238.35742,199.02051)"
       spreadMethod="pad" />
    <linearGradient
       x1="0"
       y1="0"
       x2="1"
       y2="0"
       id="linearGradient3045"
       xlink:href="#linearGradient3409"
       gradientUnits="userSpaceOnUse"
       gradientTransform="matrix(-170.50069,-119.49944,-119.49944,170.50069,238.35742,199.02051)"
       spreadMethod="pad" />
    <linearGradient
       x1="0"
       y1="0"
       x2="1"
       y2="0"
       id="linearGradient3048"
       xlink:href="#linearGradient3409"
       gradientUnits="userSpaceOnUse"
       gradientTransform="matrix(-170.50069,-119.49944,-119.49944,170.50069,238.35742,199.02051)"
       spreadMethod="pad" />
    <linearGradient
       x1="0"
       y1="0"
       x2="1"
       y2="0"
       id="linearGradient3050"
       xlink:href="#linearGradient3387"
       gradientUnits="userSpaceOnUse"
       gradientTransform="matrix(-170.50069,-119.49944,-119.49944,170.50069,231.86523,208.28418)"
       spreadMethod="pad" />
    <linearGradient
       x1="0"
       y1="0"
       x2="1"
       y2="0"
       id="linearGradient3053"
       xlink:href="#linearGradient3387"
       gradientUnits="userSpaceOnUse"
       gradientTransform="matrix(-170.50069,-119.49944,-119.49944,170.50069,231.86523,208.28418)"
       spreadMethod="pad" />
  </defs>
  <metadata
     id="metadata3308">
    <rdf:RDF>
      <cc:Work
         rdf:about="">
        <dc:format>image/svg+xml</dc:format>
        <dc:type
           rdf:resource="http://purl.org/dc/dcmitype/StillImage" />
        <dc:title />
      </cc:Work>
    </rdf:RDF>
  </metadata>
  <g
     transform="matrix(1.6,0,0,1.6,-1236.0004,-576.0002)"
     id="layer1">
    <g
       transform="matrix(1.25,0,0,-1.25,772.5,720)"
       id="g3319">
      <path
         d="m 189.0742,186.5059 -62.119,-81.932 29.621,-18.953 0,-65.476 -45.647,81.347 62.118,81.932 -29.619,18.955 0,65.477 45.646,-81.35 z m 84.447,-13.123 c -16.508,-0.002 -29.888,-13.398 -29.888,-29.924 0,-16.527 13.382,-29.926 29.888,-29.926 l -107.754,-93.388 0,70.517 -25.468,16.295 59.742,78.793 -46.094,82.106 119.574,-94.473 z m -247.039,-58.766 c 16.506,0 29.887,13.399 29.887,29.924 0,16.529 -13.381,29.926 -29.889,29.926 l 107.756,93.389 0,-70.516 25.466,-16.297 -59.741,-78.795 46.093,-82.103 -119.572,94.472 z m 116.882,173.328 -141.545,-122.681 24.661,0 c 11.412,0 20.698,-9.297 20.698,-20.723 0,-11.426 -9.284,-20.721 -20.696,-20.721 l -26.482,0 156.576,-123.718 0,-0.102 0.06,0.053 141.546,122.682 -24.661,0 c -11.412,0 -20.697,9.296 -20.697,20.724 0,11.426 9.285,20.721 20.697,20.721 l 26.479,0.004 -156.572,123.713 0,0.103 -0.064,-0.055 z"
         inkscape:connector-curvature="0"
         id="path3373"
         style="fill:#000000;fill-opacity:1;fill-rule:nonzero;stroke:none" />
      <path
         d="m 26.481,174.467 c 16.507,0 29.888,-13.397 29.888,-29.926 l 0,0 c 0,-16.525 -13.381,-29.924 -29.887,-29.924 l 0,0 119.573,-94.472 -46.094,82.103 59.741,78.795 -25.466,16.296 0,70.516 -107.755,-93.388 z"
         inkscape:connector-curvature="0"
         id="path3395"
         style="fill:url(#linearGradient3053);stroke:none" />
      <path
         d="m 200.041,185.75 -59.742,-78.793 25.468,-16.295 0,-70.517 107.755,93.388 c -16.506,0 -29.889,13.399 -29.889,29.926 l 0,0 c 0,16.525 13.381,29.921 29.889,29.924 l 0,0 -119.574,94.472 46.093,-82.105 z"
         inkscape:connector-curvature="0"
         id="path3417"
         style="fill:url(#linearGradient3048);stroke:none" />
    </g>
  </g>
</svg>
