<?xml version="1.0" encoding="UTF-8" standalone="no"?>
<!-- Created with Inkscape (http://www.inkscape.org/) -->

<svg
   xmlns:dc="http://purl.org/dc/elements/1.1/"
   xmlns:cc="http://creativecommons.org/ns#"
   xmlns:rdf="http://www.w3.org/1999/02/22-rdf-syntax-ns#"
   xmlns:svg="http://www.w3.org/2000/svg"
   xmlns="http://www.w3.org/2000/svg"
   xmlns:xlink="http://www.w3.org/1999/xlink"
   xmlns:inkscape="http://www.inkscape.org/namespaces/inkscape"
   version="1.1"
   width="600.19299"
   height="716.60626"
   viewBox="0 0 600.19295 716.60626"
   id="Layer_1"
   xml:space="preserve"><metadata
   id="metadata36"><rdf:RDF><cc:Work
       rdf:about=""><dc:format>image/svg+xml</dc:format><dc:type
         rdf:resource="http://purl.org/dc/dcmitype/StillImage" /><dc:title /></cc:Work></rdf:RDF></metadata><defs
   id="defs34">
	
	<linearGradient
   x1="1.3818001"
   y1="25.883801"
   x2="40.7939"
   y2="25.883801"
   id="SVGID_2_"
   gradientUnits="userSpaceOnUse">
		<stop
   id="stop8"
   style="stop-color:#bf331c;stop-opacity:1"
   offset="0" />
		<stop
   id="stop10"
   style="stop-color:#c1391c;stop-opacity:1"
   offset="0.0756" />
		<stop
   id="stop12"
   style="stop-color:#c8491c;stop-opacity:1"
   offset="0.18979999" />
		<stop
   id="stop14"
   style="stop-color:#d3641c;stop-opacity:1"
   offset="0.28639999" />
		<stop
   id="stop16"
   style="stop-color:#e38a1d;stop-opacity:1"
   offset="0.41800001" />
		<stop
   id="stop18"
   style="stop-color:#f6b91d;stop-opacity:1"
   offset="0.50269997" />
		<stop
   id="stop20"
   style="stop-color:#e38a1d;stop-opacity:1"
   offset="0.60229999" />
		<stop
   id="stop22"
   style="stop-color:#d3641c;stop-opacity:1"
   offset="0.69840002" />
		<stop
   id="stop24"
   style="stop-color:#c8491c;stop-opacity:1"
   offset="0.84729999" />
		<stop
   id="stop26"
   style="stop-color:#c1391c;stop-opacity:1"
   offset="0.9339" />
		<stop
   id="stop28"
   style="stop-color:#bf331c;stop-opacity:1"
   offset="1" />
	</linearGradient>
	
<linearGradient
   x1="1.3818001"
   y1="25.883801"
   x2="40.7939"
   y2="25.883801"
   id="linearGradient3009"
   xlink:href="#SVGID_2_"
   gradientUnits="userSpaceOnUse"
   gradientTransform="matrix(14.066117,0,0,14.066117,3.3074115,9.165169)" /></defs>
<path
   d="m 359.47555,378.668 c 65.97009,1.82859 85.04374,-4.29017 102.61232,-17.8499 20.45214,-15.78219 20.60686,-41.15746 32.38021,-41.08713 11.71707,0.0563 19.52377,18.28595 25.96605,36.64223 6.44228,13.13775 23.8702,22.80118 24.12339,38.78029 0.29538,19.86135 -14.12239,25.51594 -23.19503,38.79435 -9.66342,14.09425 -11.30915,38.78029 -27.1898,38.68182 -18.7642,-0.11253 -3.96665,-38.09104 -53.69038,-55.05478 -31.02985,-10.59179 -77.60276,-0.47825 -104.80663,1.702 -7.32845,21.98534 10.38079,41.84669 -10.69025,50.08944 10.08541,26.2755 27.48519,26.57089 43.26738,49.24547 -9.67749,10.91531 -15.2758,13.03929 -31.95823,10.31047 1.49102,74.35349 1.49102,151.29516 -39.08973,183.54876 -18.0187,-12.8283 -10.38079,-32.67559 -17.39979,-52.52288 -13.44721,-7.03306 -31.04392,-18.45474 -41.24185,-28.41356 19.84729,-19.24245 0.9143,-34.81364 -12.8283,-52.83234 8.86165,-14.65688 29.0184,-20.77565 33.29449,-31.14237 -4.58555,-6.41415 -19.65036,-10.90124 -20.77565,-29.9327 18.82047,-0.15473 37.51434,-34.01188 38.17545,-44.88499 0.60483,-10.0854 -10.66212,-4.41675 -12.63137,-13.29247 2.78508,-19.39718 9.19923,-23.68734 1.64573,-38.93502 -10.38079,-3.65719 -61.38453,-13.74259 -105.735,1.89893 -40.36976,14.24898 -30.28435,50.97561 -44.73025,50.97561 -15.388329,0 -27.260132,-32.2958 -35.235621,-44.32234 -8.284942,-12.50477 -17.709241,-18.65167 -17.709241,-33.58989 0,-17.70924 17.146596,-19.55189 23.813936,-37.55652 9.157043,-24.7423 19.270576,-38.4849 28.090036,-38.4849 16.51362,0 4.07916,28.10411 43.36583,49.4846 17.39979,9.4665 41.00273,9.28364 81.23183,9.4665 C 82.78097,307.50751 181.44071,68.692977 3.3918082,132.83447 0.64891573,91.606681 70.712242,58.776365 127.07517,91.90207 c 99.26458,58.33219 72.69368,179.27266 139.8594,185.37736 -6.96274,-43.23925 5.35919,-188.289047 34.04,-268.114261 32.15514,80.219066 34.94024,225.803381 31.07205,267.509411 C 407.11749,272.08903 371.83966,137.87014 485.00158,84.278234 533.8954,61.125406 599.97802,94.813756 596.77095,133.45338 417.2029,66.554927 523.4724,305.38353 359.47555,378.668 z"
   inkscape:connector-curvature="0"
   id="path5"
   style="fill:#000000;fill-rule:evenodd;stroke:#ffffff;stroke-width:6.43033791;stroke-miterlimit:4;stroke-opacity:1;stroke-dasharray:none" /><path
   d="m 298.31607,693.2989 c -1.04088,-3.40399 -1.47694,-7.69416 -2.01145,-13.50347 -0.64704,-7.27218 -1.39254,-15.50086 -4.43083,-24.13745 -1.08309,-3.05236 -3.2774,-5.58426 -6.16096,-7.08933 -8.74912,-4.57149 -20.35367,-11.71708 -29.60917,-18.86266 10.94344,-20.19895 -3.89632,-38.78029 -13.77074,-50.79275 2.92576,-2.5741 6.37196,-4.97941 9.76189,-7.32845 7.49724,-5.23259 15.26174,-10.63398 18.7642,-19.12992 1.67387,-4.07917 1.13936,-8.74912 -1.42068,-12.33598 -2.4053,-3.34773 -5.48578,-5.73898 -8.46779,-8.05988 -2.84136,-2.20839 -5.10601,-4.03698 -6.75174,-6.13284 20.18487,-11.40761 34.29319,-41.08713 34.98243,-52.39628 0.37979,-6.35788 -1.42068,-14.51623 -11.49202,-19.03146 0.50638,-2.23651 1.04089,-4.27609 1.5754,-6.25941 2.56004,-9.5509 4.96534,-18.58135 -2.39123,-33.40703 -1.47694,-2.99609 -4.06511,-5.28887 -7.21592,-6.40009 -8.01769,-2.82729 -30.18589,-7.31438 -55.58929,-7.31438 -21.59149,0 -41.34032,3.09454 -58.66978,9.21331 -30.52347,10.77464 -37.99259,32.64746 -42.46561,45.71487 -0.26725,0.74552 -0.53451,1.56135 -0.8299,2.37718 -4.85281,-5.20446 -11.56235,-18.0187 -14.417759,-23.44822 -2.560033,-4.86687 -4.96534,-9.46649 -7.314381,-12.99709 -2.588165,-3.91038 -5.204463,-7.20185 -7.525373,-10.09947 -5.710843,-7.15965 -8.045819,-10.31047 -8.045819,-16.41515 0,-3.85412 1.336282,-5.51393 7.018993,-10.88718 5.049736,-4.78248 11.984332,-11.33729 16.021307,-22.22446 6.104682,-16.49956 11.534202,-24.70011 14.741282,-28.20258 0.26726,0.68925 0.52044,1.37849 0.74551,1.9974 4.03697,10.97157 10.80278,29.31379 37.80972,44.01288 19.72069,10.73244 43.81596,10.8309 83.72153,11.01376 0,0 3.62905,0.014 3.64312,0.014 6.03437,0 11.25289,-4.1917 12.53291,-10.0854 1.30815,-5.90777 -1.71606,-11.914 -7.21592,-14.41778 C 178.41649,336.91969 161.32616,273.84722 146.24728,218.20167 131.73105,164.60976 116.7225,109.1752 55.155117,109.1752 c -9.88848,0 -20.606861,1.43473 -32.408334,4.31829 0.703306,-0.8721 1.406612,-1.68794 2.095852,-2.41937 11.492017,-12.293788 31.5503,-19.93169 52.340021,-19.93169 15.233605,0 30.242144,4.079173 43.393964,11.81554 47.90919,28.16036 64.07117,72.06071 78.32014,110.78473 13.75666,37.37368 26.72562,72.66557 66.88438,76.30869 0.37979,0.0281 0.77364,0.0563 1.15343,0.0563 3.54465,0 6.94866,-1.46287 9.3821,-4.07916 2.70069,-2.89763 3.91037,-6.87834 3.2774,-10.78872 -5.37326,-33.40703 1.88486,-141.49108 21.71809,-222.047724 19.28464,78.756194 21.23983,187.023094 17.96243,222.286844 -0.33758,3.72752 0.94243,7.42691 3.55873,10.11354 2.41937,2.50378 5.75304,3.91039 9.2133,3.91039 0.25319,0 0.50638,-0.014 0.77364,-0.0281 43.67529,-2.6585 56.86931,-39.66645 70.83696,-78.82652 14.79756,-41.52318 31.57843,-88.60247 86.83014,-114.779516 8.90385,-4.219835 18.83453,-6.357885 29.49666,-6.357885 21.25389,0 42.97198,8.692861 55.35016,22.126001 0.59078,0.64704 1.20968,1.33628 1.80046,2.08179 -12.42037,-3.20708 -23.61701,-4.78248 -33.81494,-4.78248 -59.51375,0 -72.97502,51.28506 -87.20992,105.58027 -14.89602,56.78492 -31.77536,121.1374 -101.83869,152.44857 -5.47172,2.44751 -8.49594,8.34122 -7.32845,14.22085 1.15343,5.86557 6.23129,10.15574 12.22346,10.31047 7.69417,0.21099 14.89602,0.32351 21.40862,0.32351 52.71981,0 71.46995,-7.01899 89.37611,-20.83191 12.78611,-9.87441 18.90487,-22.36513 23.34976,-31.47997 0.81583,-1.6598 1.80046,-3.67126 2.67256,-5.28886 2.40531,2.75695 6.45635,9.60715 12.36412,26.43023 0.16879,0.47825 0.35165,0.94243 0.59078,1.40662 3.2352,6.62513 7.98954,11.89993 12.60323,16.99187 5.44359,6.03435 10.14168,11.25289 10.22607,16.33075 0.1266,8.01769 -3.03828,11.57642 -10.18386,18.83454 -3.44621,3.51652 -7.34252,7.4691 -10.80278,12.50477 -4.06512,5.94997 -6.80801,12.89864 -9.22738,19.04552 -1.47694,3.78379 -4.05104,10.2964 -6.09063,12.9971 -0.60484,-1.44881 -1.26594,-3.26334 -1.81452,-4.76842 -4.92315,-13.5738 -13.16589,-36.29058 -49.00636,-48.5281 -10.73244,-3.65719 -23.46228,-5.42952 -38.92095,-5.42952 -17.34352,0 -34.98243,2.22244 -50.55362,4.17763 -7.52537,0.94243 -14.62876,1.84267 -20.5084,2.32092 -5.13413,0.40791 -9.52275,3.84005 -11.15443,8.73505 -3.89631,11.71708 -2.50376,22.26667 -1.36441,30.77667 0.45012,3.50246 1.15342,8.77726 0.54858,10.1698 l 0,0 c -0.0141,0 -0.60485,0.54858 -2.37718,1.25188 -6.56887,2.57411 -9.83221,9.95881 -7.31438,16.54176 7.03306,18.32815 17.56859,26.71155 26.85222,34.1244 3.54466,2.81322 6.96272,5.55612 10.28233,8.84759 -0.92836,0.22505 -1.88486,0.23912 -3.01015,0.23912 -2.16618,0 -5.03566,-0.29539 -8.79132,-0.90023 -0.68924,-0.11253 -1.37847,-0.16879 -2.05365,-0.16879 -3.06642,0 -6.0625,1.09715 -8.41155,3.13674 -2.88355,2.48971 -4.50115,6.1469 -4.41675,9.95881 1.18155,58.21966 2.6163,129.46454 -25.12209,164.05312 z"
   inkscape:connector-curvature="0"
   id="path30"
   style="fill:url(#linearGradient3009);fill-rule:evenodd" />
</svg>