<?xml version="1.0" encoding="UTF-8" standalone="no"?>
<!-- Created with Inkscape (http://www.inkscape.org/) -->

<svg
   xmlns:dc="http://purl.org/dc/elements/1.1/"
   xmlns:cc="http://creativecommons.org/ns#"
   xmlns:rdf="http://www.w3.org/1999/02/22-rdf-syntax-ns#"
   xmlns:svg="http://www.w3.org/2000/svg"
   xmlns="http://www.w3.org/2000/svg"
   xmlns:xlink="http://www.w3.org/1999/xlink"
   xmlns:inkscape="http://www.inkscape.org/namespaces/inkscape"
   version="1.1"
   width="600"
   height="507.63568"
   id="svg6140">
  <defs
     id="defs6142">
    <linearGradient
       x1="0"
       y1="0"
       x2="1"
       y2="0"
       id="linearGradient686"
       gradientUnits="userSpaceOnUse"
       gradientTransform="matrix(36.211609,-36.211594,-36.211594,-36.211594,730.09961,164.64648)"
       spreadMethod="pad">
      <stop
         id="stop688"
         style="stop-color:#8d742f;stop-opacity:1"
         offset="0" />
      <stop
         id="stop690"
         style="stop-color:#d7bd74;stop-opacity:1"
         offset="0.25" />
      <stop
         id="stop692"
         style="stop-color:#b39a54;stop-opacity:1"
         offset="0.39999399" />
      <stop
         id="stop694"
         style="stop-color:#8d742f;stop-opacity:1"
         offset="0.5" />
      <stop
         id="stop696"
         style="stop-color:#b39a54;stop-opacity:1"
         offset="0.60000598" />
      <stop
         id="stop698"
         style="stop-color:#d7bd74;stop-opacity:1"
         offset="0.75" />
      <stop
         id="stop700"
         style="stop-color:#8d742f;stop-opacity:1"
         offset="1" />
    </linearGradient>
    <linearGradient
       x1="0"
       y1="0"
       x2="1"
       y2="0"
       id="linearGradient2997"
       xlink:href="#linearGradient686"
       gradientUnits="userSpaceOnUse"
       gradientTransform="matrix(36.211609,-36.211594,-36.211594,-36.211594,730.09961,164.64648)"
       spreadMethod="pad" />
    <linearGradient
       x1="0"
       y1="0"
       x2="1"
       y2="0"
       id="linearGradient3000"
       xlink:href="#linearGradient686"
       gradientUnits="userSpaceOnUse"
       gradientTransform="matrix(459.55762,459.55743,-459.55743,459.55743,70.226448,24.06853)"
       spreadMethod="pad" />
  </defs>
  <metadata
     id="metadata6145">
    <rdf:RDF>
      <cc:Work
         rdf:about="">
        <dc:format>image/svg+xml</dc:format>
        <dc:type
           rdf:resource="http://purl.org/dc/dcmitype/StillImage" />
        <dc:title />
      </cc:Work>
    </rdf:RDF>
  </metadata>
  <path
     d="M 355.64956,253.81785 C 506.25238,202.01362 600,0 600,0 L 0,0 C 0,0 93.74762,202.01362 244.4012,253.81785 93.74762,305.62207 0,507.63569 0,507.63569 l 600,0 c 0,0 -93.74762,-202.01362 -244.35044,-253.81784"
     inkscape:connector-curvature="0"
     id="path682"
     style="fill:#000000;fill-opacity:1;fill-rule:nonzero;stroke:none" />
  <path
     d="m 317.2723,33.80854 0,199.72926 C 459.956,190.02073 539.51521,33.80854 539.51521,33.80854 l 0,0 -222.24291,0 z m -256.838271,0 c 0,0 79.622661,156.21219 222.293671,199.72926 l 0,0 0,-199.72926 -222.293671,0 z m 256.838271,440.06938 222.24291,0 c 0,0 -79.55921,-156.21219 -222.24291,-199.78003 l 0,0 0,199.78003 z m -256.838271,0 222.293671,0 0,-199.78003 C 140.05669,317.66573 60.434029,473.87792 60.434029,473.87792"
     inkscape:connector-curvature="0"
     id="path702"
     style="fill:url(#linearGradient3000);fill-opacity:1;fill-rule:nonzero;stroke:none" />
</svg>
