<?xml version="1.0" encoding="UTF-8" standalone="no"?>
<!-- Created with Inkscape (http://www.inkscape.org/) -->

<svg
   xmlns:dc="http://purl.org/dc/elements/1.1/"
   xmlns:cc="http://creativecommons.org/ns#"
   xmlns:rdf="http://www.w3.org/1999/02/22-rdf-syntax-ns#"
   xmlns:svg="http://www.w3.org/2000/svg"
   xmlns="http://www.w3.org/2000/svg"
   xmlns:xlink="http://www.w3.org/1999/xlink"
   xmlns:inkscape="http://www.inkscape.org/namespaces/inkscape"
   version="1.1"
   width="600"
   height="547.09589"
   viewBox="0 0 600 547.09587"
   id="Layer_1"
   xml:space="preserve"><metadata
   id="metadata56"><rdf:RDF><cc:Work
       rdf:about=""><dc:format>image/svg+xml</dc:format><dc:type
         rdf:resource="http://purl.org/dc/dcmitype/StillImage" /><dc:title /></cc:Work></rdf:RDF></metadata><defs
   id="defs54"><linearGradient
   x1="707.62292"
   y1="43.601013"
   x2="982.84595"
   y2="543.60101"
   id="linearGradient3826"
   xlink:href="#SVGID_4_-1"
   gradientUnits="userSpaceOnUse"
   gradientTransform="translate(-547.22344,1.2285e-6)" /><linearGradient
   x1="-103.6748"
   y1="-317.34399"
   x2="-102.425"
   y2="-317.34399"
   id="SVGID_4_-1"
   gradientUnits="userSpaceOnUse"
   gradientTransform="matrix(22.793,39.4786,-39.4786,22.793,-10152.99,11329.053)"><stop
     id="stop16-6"
     style="stop-color:#8d742f;stop-opacity:1"
     offset="0" /><stop
     id="stop18-8"
     style="stop-color:#907732;stop-opacity:1"
     offset="0.14309999" /><stop
     id="stop20-8"
     style="stop-color:#9a813c;stop-opacity:1"
     offset="0.2579" /><stop
     id="stop22-2"
     style="stop-color:#ab924c;stop-opacity:1"
     offset="0.36269999" /><stop
     id="stop24-7"
     style="stop-color:#b39a54;stop-opacity:1"
     offset="0.40000001" /><stop
     id="stop26-7"
     style="stop-color:#b9a059;stop-opacity:1"
     offset="0.4321" /><stop
     id="stop28-1"
     style="stop-color:#c9b068;stop-opacity:1"
     offset="0.47389999" /><stop
     id="stop30-2"
     style="stop-color:#d7bd74;stop-opacity:1"
     offset="0.5" /><stop
     id="stop32-6"
     style="stop-color:#c9b068;stop-opacity:1"
     offset="0.52609998" /><stop
     id="stop34-0"
     style="stop-color:#b9a059;stop-opacity:1"
     offset="0.5679" /><stop
     id="stop36-4"
     style="stop-color:#b39a54;stop-opacity:1"
     offset="0.60000002" /><stop
     id="stop38-9"
     style="stop-color:#ab924c;stop-opacity:1"
     offset="0.63730001" /><stop
     id="stop40-4"
     style="stop-color:#9a813c;stop-opacity:1"
     offset="0.7421" /><stop
     id="stop42-6"
     style="stop-color:#907732;stop-opacity:1"
     offset="0.85689998" /><stop
     id="stop44-0"
     style="stop-color:#8d742f;stop-opacity:1"
     offset="1" /></linearGradient><linearGradient
   x1="707.62292"
   y1="43.601013"
   x2="982.84595"
   y2="543.60101"
   id="linearGradient3034"
   xlink:href="#SVGID_4_-1"
   gradientUnits="userSpaceOnUse"
   gradientTransform="translate(-547.22346,-499.62647)" /><linearGradient
   x1="707.62292"
   y1="43.601013"
   x2="982.84595"
   y2="543.60101"
   id="linearGradient3846"
   xlink:href="#SVGID_4_"
   gradientUnits="userSpaceOnUse"
   gradientTransform="matrix(0.99870501,0,0,0.99870501,-546.35767,0.18777346)" />
	
<linearGradient
   x1="49.6255"
   y1="-314.39969"
   x2="50.875801"
   y2="-314.39969"
   id="linearGradient3870"
   xlink:href="#SVGID_4_"
   gradientUnits="userSpaceOnUse"
   gradientTransform="matrix(22.793,39.4786,-39.4786,22.793,-13530.904,5209.8652)" />
		<defs
   id="defs9">
			<path
   d="M 2.413,24.57 V 24.35 C 2.413,15.164 4.497,13.821 9.159,9.159 12.25,6.068 18.32,2.413 24.35,2.413 h 3.729 c 3.773,0 8.422,1.607 10.312,3.73 l 3.071,2.851 2.414,3.072 2.412,3.948 0.219,0.219 c 0.828,1.723 1.127,4.066 1.316,6.362 l 0.879,2.853 0.219,0.219 v 0.219 l 1.098,2.634 c 0.928,1.462 -1.536,3.803 -1.536,6.361 v 0.22 c 0,0.755 3.949,4.454 3.949,7.238 v 0.439 c 0,1.201 -3.199,2.094 -4.388,2.193 v -0.658 c 0,-0.593 -0.104,-0.605 -0.219,-1.098 l -1.107,0.161 0.744,1.561 c -0.496,0.662 -2.539,1.352 -3.365,1.352 h -0.219 c -0.846,0 -0.821,-0.742 -1.098,-1.316 h -0.876 l 0.272,1.745 c -0.934,0.082 -3.016,0.135 -3.969,0.287 -1.353,0.216 -1.351,-0.457 -1.351,-2.253 H 36.2 c -0.508,0 -0.658,0.153 -0.658,0.659 v 1.755 c -0.817,0.19 -1.639,0.438 -2.633,0.438 -0.117,0 -0.482,-0.315 -0.658,-0.438 V 45.85 c -1.4,-0.938 -0.918,-2.276 -1.262,-4.004 -0.611,-3.085 -1.23,-1.652 -2.688,-2.576 -0.686,-0.059 -0.778,-0.221 -1.535,-0.221 h -4.387 c -1.402,0 -1.67,0.439 -3.072,0.439 -0.023,0.01 -4.971,1.097 -5.045,1.097 h -2.194 c -1.252,0 -2.183,-0.297 -2.852,-0.877 C 7.67,38.89 5.705,37.199 5.267,35.32 L 3.729,31.59 3.51,30.931 v -0.22 L 2.632,26.105 2.413,24.57 l 0,0 z"
   inkscape:connector-curvature="0"
   id="SVGID_2_" />
		</defs>
		<clipPath
   id="SVGID_3_">
			<use
   id="use13"
   style="overflow:visible"
   x="0"
   y="0"
   width="54.84"
   height="50.018002"
   xlink:href="#SVGID_2_" />
		</clipPath>
		
			<linearGradient
   x1="49.6255"
   y1="-314.39969"
   x2="50.875801"
   y2="-314.39969"
   id="SVGID_4_"
   gradientUnits="userSpaceOnUse"
   gradientTransform="matrix(22.793,39.4786,-39.4786,22.793,-13530.904,5209.8652)">
			<stop
   id="stop16"
   style="stop-color:#626e77;stop-opacity:1"
   offset="0" />
			<stop
   id="stop18"
   style="stop-color:#65717a;stop-opacity:1"
   offset="0.0944" />
			<stop
   id="stop20"
   style="stop-color:#6d7b84;stop-opacity:1"
   offset="0.17020001" />
			<stop
   id="stop22"
   style="stop-color:#7b8b95;stop-opacity:1"
   offset="0.2396" />
			<stop
   id="stop24"
   style="stop-color:#8ea2ad;stop-opacity:1"
   offset="0.30469999" />
			<stop
   id="stop26"
   style="stop-color:#a0b6c2;stop-opacity:1"
   offset="0.34999999" />
			<stop
   id="stop28"
   style="stop-color:#a7becb;stop-opacity:1"
   offset="0.41" />
			<stop
   id="stop30"
   style="stop-color:#b7d1e1;stop-opacity:1"
   offset="0.5" />
			<stop
   id="stop32"
   style="stop-color:#a7becb;stop-opacity:1"
   offset="0.58999997" />
			<stop
   id="stop34"
   style="stop-color:#a0b6c2;stop-opacity:1"
   offset="0.64999998" />
			<stop
   id="stop36"
   style="stop-color:#8ea2ad;stop-opacity:1"
   offset="0.69529998" />
			<stop
   id="stop38"
   style="stop-color:#7b8b95;stop-opacity:1"
   offset="0.7604" />
			<stop
   id="stop40"
   style="stop-color:#6d7b84;stop-opacity:1"
   offset="0.82980001" />
			<stop
   id="stop42"
   style="stop-color:#65717a;stop-opacity:1"
   offset="0.90560001" />
			<stop
   id="stop44"
   style="stop-color:#626e77;stop-opacity:1"
   offset="1" />
		</linearGradient>
		
	</defs>
<path
   d="m 0.15713674,223.10314 c 0.71494701,23.89973 -2.63596424,48.1747 4.74564226,71.3003 4.7045356,35.74787 10.782482,71.83158 28.795627,103.66484 20.136152,40.9 62.513088,76.06253 110.268754,71.90036 38.28896,-1.02127 74.12815,-19.9741 112.8668,-16.95738 19.18114,-0.70188 38.31375,-0.43579 57.30803,2.58949 -2.48219,28.44093 12.56167,54.62603 21.97813,79.20009 10.53449,12.31681 27.79923,15.44271 42.17965,9.09285 39.30164,-7.68005 80.12598,-4.54121 118.86152,-16.10987 28.9115,-10.26541 60.98582,-13.35198 85.82329,-31.13135 11.81153,-11.06312 19.2794,-24.7753 16.39556,-41.05172 -9.9757,-26.81313 -23.77907,-51.43115 -40.34772,-74.67411 -7.52842,-22.55751 20.18642,-41.63553 13.99384,-66.04169 -1.21835,-28.47776 -24.59617,-50.95867 -25.85985,-79.84217 -1.40836,-33.78331 -11.3658,-66.83444 -31.06621,-94.53821 C 481.68902,88.450283 439.83417,35.532048 379.29536,13.543239 356.48332,9.2642975 333.62604,2.7129977 310.80671,0.18777346 285.12387,1.1042477 258.90803,-2.9367107 234.09699,5.4773946 142.40875,20.940592 61.296292,83.107565 17.244103,164.19291 8.2836305,182.73803 5.6730448,203.4428 0.15713674,223.10314 z"
   inkscape:connector-curvature="0"
   id="path3"
   style="fill:#1b1b17" />

<path
   d="m 26.522397,268.64327 v -2.4038 c 0,-100.35855 22.770514,-115.04357 73.709163,-165.98222 33.77337,-33.773351 100.09632,-73.709167 165.98225,-73.709167 h 40.74437 c 41.22514,0 92.02167,17.558642 112.66161,40.755293 l 33.55479,31.151028 26.3763,33.565756 26.36521,43.13723 2.3929,2.39288 c 9.03608,18.82611 12.30305,44.43747 14.37906,69.51345 l 9.60434,31.17288 2.3928,2.39288 v 2.39287 l 11.98626,28.76909 c 10.13965,15.97433 -16.78294,41.55292 -16.78294,69.51346 v 2.39287 c 0,8.2494 43.14825,48.66598 43.14825,79.09586 v 4.79667 c 0,13.12256 -34.95348,22.87977 -47.93395,23.96148 v -7.18953 c 0,-6.47932 -1.14731,-6.61043 -2.40378,-11.9862 l -12.09551,1.75914 8.14014,17.0451 c -5.41947,7.23324 -27.74203,14.77243 -36.77811,14.77243 h -2.3929 c -9.23273,0 -8.97047,-8.10736 -11.98616,-14.39001 h -9.57158 l 2.98303,19.07741 c -10.20527,0.89597 -32.96486,1.46413 -43.36677,3.13586 -14.78333,2.34917 -14.76156,-4.99334 -14.76156,-24.61706 h -7.18948 c -5.53971,0 -7.18957,1.67173 -7.18957,7.20046 v 19.17575 c -8.92683,2.076 -17.8974,4.78574 -28.75811,4.78574 -1.27835,0 -5.26648,-3.4418 -7.18958,-4.78574 v -14.39001 c -15.30775,-10.24892 -10.04128,-24.86836 -13.78902,-43.7491 -6.67605,-33.69688 -13.43938,-18.05033 -29.35913,-28.14628 -7.50637,-0.63373 -8.51157,-2.40381 -16.78284,-2.40381 h -47.93393 c -15.31874,0 -18.24701,4.79667 -33.56575,4.79667 -0.25132,0.10927 -54.31491,11.98621 -55.12346,11.98621 h -23.97241 c -13.6798,0 -23.85224,-3.24512 -31.16196,-9.58241 -16.892133,-8.94868 -38.362423,-27.41421 -43.148168,-47.94483 l -16.80473,-40.7553 -2.392867,-7.20046 v -2.39288 l -9.593341,-50.33771 -2.392867,-16.77195 0,0 z"
   inkscape:connector-curvature="0"
   id="path5"
   style="fill:url(#linearGradient3846);fill-opacity:1" /><g
   transform="matrix(10.926153,0,0,10.926153,0.15713674,0.18777417)"
   id="_287324792_3_">
	<path
   d="m 42.776,17.988 -0.219,0.22 -0.221,0.218 -0.438,0.438 c -0.319,0.479 -0.657,0.936 -0.657,1.757 0,1.681 1.705,2.684 2.852,3.29 0.214,0.113 1.306,0.877 1.316,0.877 0.693,0 0.748,-0.541 0.877,-1.097 v -0.438 l 0.219,-0.439 c 0,-2.361 -0.28,-5.265 -2.414,-5.265 -0.423,0.001 -0.712,0.299 -1.315,0.439 z"
   inkscape:connector-curvature="0"
   id="_287321336_3_"
   style="fill:#1b1b17" />
	<path
   d="m 42.776,25.448 -0.658,0.438 -0.22,3.511 -1.095,3.51 c 0.137,1.653 2.004,0.006 3.509,2.852 1.021,-0.237 2.414,-1.408 2.414,-2.633 v -0.659 c 0,-0.756 -0.163,-0.849 -0.22,-1.534 l -0.877,-3.729 c -0.211,-0.316 -1.65,-1.975 -1.975,-1.975 -0.466,-10e-4 -0.288,0.078 -0.878,0.219 z"
   inkscape:connector-curvature="0"
   id="_287325080_3_"
   style="fill:#1b1b17" />
	<path
   d="m 24.568,28.08 c 0.118,1.406 1.705,3.327 2.634,3.949 0.485,0.256 1.07,0.658 1.753,0.658 h 0.438 c 4.384,0 6.431,-1.549 7.897,-4.607 v -0.219 -0.22 c 0,-2.666 -0.828,-4.86 -2.414,-5.921 -0.697,-0.471 -1.225,-0.88 -2.414,-0.88 h -0.217 c -4.177,0 -7.677,2.879 -7.677,7.24 z"
   inkscape:connector-curvature="0"
   id="_287324960_3_"
   style="fill:#1b1b17" />
</g>
</svg>