<?xml version="1.0" encoding="UTF-8" standalone="no"?>
<!-- Created with Inkscape (http://www.inkscape.org/) -->

<svg
   xmlns:dc="http://purl.org/dc/elements/1.1/"
   xmlns:cc="http://creativecommons.org/ns#"
   xmlns:rdf="http://www.w3.org/1999/02/22-rdf-syntax-ns#"
   xmlns:svg="http://www.w3.org/2000/svg"
   xmlns="http://www.w3.org/2000/svg"
   xmlns:xlink="http://www.w3.org/1999/xlink"
   xmlns:inkscape="http://www.inkscape.org/namespaces/inkscape"
   version="1.1"
   width="600"
   height="547.84375"
   viewBox="0 0 600 547.84373"
   id="Layer_1"
   xml:space="preserve"><metadata
   id="metadata60"><rdf:RDF><cc:Work
       rdf:about=""><dc:format>image/svg+xml</dc:format><dc:type
         rdf:resource="http://purl.org/dc/dcmitype/StillImage" /><dc:title /></cc:Work></rdf:RDF></metadata><defs
   id="defs58"><linearGradient
   x1="-256.9707"
   y1="-320.0676"
   x2="-255.7204"
   y2="-320.0676"
   id="linearGradient3869"
   gradientUnits="userSpaceOnUse"
   gradientTransform="matrix(22.793,39.4786,-39.4786,22.793,-6766.4282,17443.021)">
			<stop
   id="stop3871"
   style="stop-color:#bb2c26;stop-opacity:1"
   offset="0" />
			<stop
   id="stop3873"
   style="stop-color:#bd2f26;stop-opacity:1"
   offset="0.1073" />
			<stop
   id="stop3875"
   style="stop-color:#c13925;stop-opacity:1"
   offset="0.1935" />
			<stop
   id="stop3877"
   style="stop-color:#ca4a25;stop-opacity:1"
   offset="0.2723" />
			<stop
   id="stop3879"
   style="stop-color:#d56224;stop-opacity:1"
   offset="0.34639999" />
			<stop
   id="stop3881"
   style="stop-color:#e07823;stop-opacity:1"
   offset="0.40000001" />
			<stop
   id="stop3883"
   style="stop-color:#e47e22;stop-opacity:1"
   offset="0.43450001" />
			<stop
   id="stop3885"
   style="stop-color:#f08e1f;stop-opacity:1"
   offset="0.4795" />
			<stop
   id="stop3887"
   style="stop-color:#f7981d;stop-opacity:1"
   offset="0.5" />
			<stop
   id="stop3889"
   style="stop-color:#f08e1f;stop-opacity:1"
   offset="0.5205" />
			<stop
   id="stop3891"
   style="stop-color:#e47e22;stop-opacity:1"
   offset="0.56550002" />
			<stop
   id="stop3893"
   style="stop-color:#e07823;stop-opacity:1"
   offset="0.60000002" />
			<stop
   id="stop3895"
   style="stop-color:#d56224;stop-opacity:1"
   offset="0.65359998" />
			<stop
   id="stop3897"
   style="stop-color:#ca4a25;stop-opacity:1"
   offset="0.7277" />
			<stop
   id="stop3899"
   style="stop-color:#c13925;stop-opacity:1"
   offset="0.80650002" />
			<stop
   id="stop3901"
   style="stop-color:#bd2f26;stop-opacity:1"
   offset="0.89270002" />
			<stop
   id="stop3903"
   style="stop-color:#bb2c26;stop-opacity:1"
   offset="1" />
		</linearGradient>
	
<linearGradient
   x1="-256.9707"
   y1="-320.0676"
   x2="-255.7204"
   y2="-320.0676"
   id="linearGradient3068"
   xlink:href="#SVGID_4_"
   gradientUnits="userSpaceOnUse"
   gradientTransform="matrix(22.793,39.4786,-39.4786,22.793,-6766.4282,17443.021)" />
		<defs
   id="defs9">
			<path
   d="M 2.413,24.57 V 24.35 C 2.413,15.164 4.497,13.821 9.159,9.159 12.25,6.068 18.32,2.413 24.35,2.413 h 3.729 c 3.773,0 8.422,1.607 10.312,3.73 l 3.071,2.851 2.414,3.072 2.412,3.948 0.219,0.219 c 0.828,1.723 1.127,4.066 1.316,6.362 l 0.879,2.853 0.219,0.219 v 0.219 l 1.098,2.634 c 0.928,1.462 -1.536,3.803 -1.536,6.361 v 0.22 c 0,0.755 3.949,4.454 3.949,7.238 v 0.439 c 0,1.201 -3.199,2.094 -4.388,2.193 v -0.658 c 0,-0.593 -0.104,-0.605 -0.219,-1.098 l -1.107,0.161 0.744,1.561 c -0.496,0.662 -2.539,1.352 -3.365,1.352 h -0.219 c -0.846,0 -0.821,-0.742 -1.098,-1.316 h -0.876 l 0.272,1.745 c -0.934,0.082 -3.016,0.135 -3.969,0.287 -1.353,0.216 -1.351,-0.457 -1.351,-2.253 H 36.2 c -0.508,0 -0.658,0.153 -0.658,0.659 v 1.755 c -0.817,0.19 -1.639,0.438 -2.633,0.438 -0.117,0 -0.482,-0.315 -0.658,-0.438 V 45.85 c -1.4,-0.938 -0.918,-2.276 -1.262,-4.004 -0.611,-3.085 -1.23,-1.652 -2.688,-2.576 -0.686,-0.059 -0.778,-0.221 -1.535,-0.221 h -4.387 c -1.402,0 -1.67,0.439 -3.072,0.439 -0.023,0.01 -4.971,1.097 -5.045,1.097 h -2.194 c -1.252,0 -2.183,-0.297 -2.852,-0.877 C 7.67,38.89 5.705,37.199 5.267,35.32 L 3.729,31.59 3.51,30.931 v -0.22 L 2.632,26.105 2.413,24.57 l 0,0 z"
   inkscape:connector-curvature="0"
   id="SVGID_2_" />
		</defs>
		<clipPath
   id="SVGID_3_">
			<use
   id="use13"
   style="overflow:visible"
   x="0"
   y="0"
   width="54.84"
   height="50.018002"
   xlink:href="#SVGID_2_" />
		</clipPath>
		
			<linearGradient
   x1="-256.9707"
   y1="-320.0676"
   x2="-255.7204"
   y2="-320.0676"
   id="SVGID_4_"
   gradientUnits="userSpaceOnUse"
   gradientTransform="matrix(22.793,39.4786,-39.4786,22.793,-6766.4282,17443.021)">
			<stop
   id="stop16"
   style="stop-color:#bb2c26;stop-opacity:1"
   offset="0" />
			<stop
   id="stop18"
   style="stop-color:#bd2f26;stop-opacity:1"
   offset="0.1073" />
			<stop
   id="stop20"
   style="stop-color:#c13925;stop-opacity:1"
   offset="0.1935" />
			<stop
   id="stop22"
   style="stop-color:#ca4a25;stop-opacity:1"
   offset="0.2723" />
			<stop
   id="stop24"
   style="stop-color:#d56224;stop-opacity:1"
   offset="0.34639999" />
			<stop
   id="stop26"
   style="stop-color:#e07823;stop-opacity:1"
   offset="0.40000001" />
			<stop
   id="stop28"
   style="stop-color:#e47e22;stop-opacity:1"
   offset="0.43450001" />
			<stop
   id="stop30"
   style="stop-color:#f08e1f;stop-opacity:1"
   offset="0.4795" />
			<stop
   id="stop32"
   style="stop-color:#f7981d;stop-opacity:1"
   offset="0.5" />
			<stop
   id="stop34"
   style="stop-color:#f08e1f;stop-opacity:1"
   offset="0.5205" />
			<stop
   id="stop36"
   style="stop-color:#e47e22;stop-opacity:1"
   offset="0.56550002" />
			<stop
   id="stop38"
   style="stop-color:#e07823;stop-opacity:1"
   offset="0.60000002" />
			<stop
   id="stop40"
   style="stop-color:#d56224;stop-opacity:1"
   offset="0.65359998" />
			<stop
   id="stop42"
   style="stop-color:#ca4a25;stop-opacity:1"
   offset="0.7277" />
			<stop
   id="stop44"
   style="stop-color:#c13925;stop-opacity:1"
   offset="0.80650002" />
			<stop
   id="stop46"
   style="stop-color:#bd2f26;stop-opacity:1"
   offset="0.89270002" />
			<stop
   id="stop48"
   style="stop-color:#bb2c26;stop-opacity:1"
   offset="1" />
		</linearGradient>
		
	<linearGradient
   x1="731.34589"
   y1="-445.86847"
   x2="1031.0547"
   y2="61.136223"
   id="linearGradient3867"
   xlink:href="#linearGradient3869"
   gradientUnits="userSpaceOnUse"
   gradientTransform="translate(-573.45238,484.83799)" /><linearGradient
   x1="731.34589"
   y1="-445.86847"
   x2="1031.0547"
   y2="61.136223"
   id="linearGradient3812"
   xlink:href="#linearGradient3869"
   gradientUnits="userSpaceOnUse"
   gradientTransform="translate(-573.45238,484.83799)" /><linearGradient
   x1="731.34589"
   y1="-445.86847"
   x2="1031.0547"
   y2="61.136223"
   id="linearGradient3815"
   xlink:href="#linearGradient3869"
   gradientUnits="userSpaceOnUse"
   gradientTransform="matrix(1.0002782,0,0,1.0002782,174.3871,408.82175)" /><linearGradient
   x1="707.62292"
   y1="43.601013"
   x2="982.84595"
   y2="543.60101"
   id="linearGradient3826"
   xlink:href="#SVGID_4_-1"
   gradientUnits="userSpaceOnUse"
   gradientTransform="translate(-547.22344,1.2285e-6)" /><linearGradient
   x1="-103.6748"
   y1="-317.34399"
   x2="-102.425"
   y2="-317.34399"
   id="SVGID_4_-1"
   gradientUnits="userSpaceOnUse"
   gradientTransform="matrix(22.793,39.4786,-39.4786,22.793,-10152.99,11329.053)"><stop
     id="stop16-6"
     style="stop-color:#8d742f;stop-opacity:1"
     offset="0" /><stop
     id="stop18-8"
     style="stop-color:#907732;stop-opacity:1"
     offset="0.14309999" /><stop
     id="stop20-8"
     style="stop-color:#9a813c;stop-opacity:1"
     offset="0.2579" /><stop
     id="stop22-2"
     style="stop-color:#ab924c;stop-opacity:1"
     offset="0.36269999" /><stop
     id="stop24-7"
     style="stop-color:#b39a54;stop-opacity:1"
     offset="0.40000001" /><stop
     id="stop26-7"
     style="stop-color:#b9a059;stop-opacity:1"
     offset="0.4321" /><stop
     id="stop28-1"
     style="stop-color:#c9b068;stop-opacity:1"
     offset="0.47389999" /><stop
     id="stop30-2"
     style="stop-color:#d7bd74;stop-opacity:1"
     offset="0.5" /><stop
     id="stop32-6"
     style="stop-color:#c9b068;stop-opacity:1"
     offset="0.52609998" /><stop
     id="stop34-0"
     style="stop-color:#b9a059;stop-opacity:1"
     offset="0.5679" /><stop
     id="stop36-4"
     style="stop-color:#b39a54;stop-opacity:1"
     offset="0.60000002" /><stop
     id="stop38-9"
     style="stop-color:#ab924c;stop-opacity:1"
     offset="0.63730001" /><stop
     id="stop40-4"
     style="stop-color:#9a813c;stop-opacity:1"
     offset="0.7421" /><stop
     id="stop42-6"
     style="stop-color:#907732;stop-opacity:1"
     offset="0.85689998" /><stop
     id="stop44-0"
     style="stop-color:#8d742f;stop-opacity:1"
     offset="1" /></linearGradient><linearGradient
   x1="707.62292"
   y1="43.601013"
   x2="982.84595"
   y2="543.60101"
   id="linearGradient3038"
   xlink:href="#SVGID_4_"
   gradientUnits="userSpaceOnUse"
   gradientTransform="matrix(0.9868421,0,0,0.9868421,-536.32827,4.3759627)" /></defs>
<path
   d="m 3.6887088,224.33336 c -0.6323687,27.00567 -0.6350159,54.10868 6.042769,80.41541 6.9980722,59.19016 29.8023262,124.61519 86.1185552,153.56677 43.857567,23.32804 91.890907,0.49547 136.765987,-5.99411 27.05505,-1.58927 54.49098,-2.08887 81.41426,1.81178 1.30378,30.81434 9.46394,70.21844 35.74214,88.12946 26.07672,4.5179 52.39354,-7.97355 79.22136,-6.79657 43.47869,-1.13498 84.83612,-15.21396 125.96278,-27.87761 38.29572,-7.86493 53.23075,-52.74694 28.36902,-82.39747 -11.79027,-25.98964 -43.04211,-51.78523 -18.90237,-80.77446 17.7044,-31.4382 -7.32086,-63.49349 -17.35298,-92.8103 C 542.515,213.8599 537.74909,173.98041 513.64509,142.69321 478.85451,90.45772 436.48337,35.798907 374.19953,16.387259 342.3177,8.9830636 310.24109,1.6293062 277.27399,3.8210565 238.75844,4.6339821 200.69281,15.543443 165.401,30.668431 101.30165,60.429407 45.773781,112.06296 16.19655,176.62385 10.634753,192.13886 8.1299178,208.50272 3.6887088,224.33336 z"
   inkscape:connector-curvature="0"
   id="path3"
   style="fill:#1b1b17;stroke:#ffffff;stroke-width:7.89473677;stroke-miterlimit:4;stroke-opacity:1;stroke-dasharray:none" />


<path
   d="m 29.746966,269.64266 v -2.37525 c 0,-99.16646 22.500039,-113.67704 72.833634,-164.01062 33.37219,-33.372186 98.90734,-72.833633 164.01063,-72.833633 h 40.2604 c 40.73545,0 90.92867,17.350076 111.32344,40.271191 l 33.15621,30.781002 26.06293,33.16705 26.05204,42.62484 2.36447,2.36445 c 8.92875,18.60249 12.15691,43.90963 14.20826,68.68775 l 9.49026,30.8026 2.36438,2.36446 v 2.36444 l 11.84388,28.42738 c 10.01921,15.78458 -16.58359,41.05934 -16.58359,68.68775 v 2.36446 c 0,8.1514 42.63575,48.0879 42.63575,78.15633 v 4.7397 c 0,12.96668 -34.53831,22.608 -47.3646,23.67685 v -7.10412 c 0,-6.40237 -1.13368,-6.53192 -2.37523,-11.84384 l -11.95184,1.73825 8.04345,16.84264 c -5.35509,7.14732 -27.4125,14.59695 -36.34125,14.59695 h -2.36447 c -9.12306,0 -8.86391,-8.01105 -11.84378,-14.21908 h -9.45783 l 2.94753,18.85081 c -10.08397,0.88532 -32.57322,1.44674 -42.85157,3.09861 -14.60773,2.32126 -14.58622,-4.93403 -14.58622,-24.32466 h -7.10408 c -5.47391,0 -7.10418,1.65187 -7.10418,7.11493 v 18.94798 c -8.82079,2.05134 -17.6848,4.72889 -28.41654,4.72889 -1.2632,0 -5.20394,-3.40091 -7.10415,-4.72889 V 499.3828 c -15.12599,-10.12718 -9.92203,-24.57297 -13.62526,-43.22944 -6.5967,-33.29661 -13.27977,-17.83592 -29.01037,-27.81195 -7.41725,-0.6262 -8.41053,-2.37525 -16.58353,-2.37525 h -47.36453 c -15.13679,0 -18.03027,4.73969 -33.16705,4.73969 -0.24833,0.10797 -53.66975,11.84384 -54.46869,11.84384 h -23.68766 c -13.5173,0 -23.56891,-3.20658 -30.7918,-9.4686 -16.691492,-8.84238 -37.906752,-27.08857 -42.63565,-47.37532 l -16.605118,-40.27119 -2.364444,-7.11494 v -2.36445 l -9.479388,-49.7398 -2.364444,-16.57273 0,0 z"
   inkscape:connector-curvature="0"
   id="path5-1"
   style="fill:url(#linearGradient3038);fill-opacity:1" /><g
   transform="matrix(10.799373,0,0,10.799373,3.6887088,4.0045543)"
   id="_287324792_2_">
	<path
   d="m 42.776,17.988 -0.219,0.22 -0.221,0.218 -0.438,0.438 c -0.319,0.479 -0.657,0.936 -0.657,1.757 0,1.681 1.705,2.684 2.852,3.29 0.214,0.113 1.306,0.877 1.316,0.877 0.693,0 0.748,-0.541 0.877,-1.097 v -0.438 l 0.219,-0.439 c 0,-2.361 -0.28,-5.265 -2.414,-5.265 -0.423,0.001 -0.712,0.299 -1.315,0.439 z"
   inkscape:connector-curvature="0"
   id="_287321336_2_"
   style="fill:#1b1b17" />
	<path
   d="m 42.776,25.448 -0.658,0.438 -0.22,3.511 -1.095,3.51 c 0.137,1.653 2.004,0.006 3.509,2.852 1.021,-0.237 2.414,-1.408 2.414,-2.633 v -0.659 c 0,-0.756 -0.163,-0.849 -0.22,-1.534 l -0.877,-3.729 c -0.211,-0.316 -1.65,-1.975 -1.975,-1.975 -0.466,-10e-4 -0.288,0.078 -0.878,0.219 z"
   inkscape:connector-curvature="0"
   id="_287325080_2_"
   style="fill:#1b1b17" />
	<path
   d="m 24.568,28.08 c 0.118,1.406 1.705,3.327 2.634,3.949 0.485,0.256 1.07,0.658 1.753,0.658 h 0.438 c 4.384,0 6.431,-1.549 7.897,-4.607 v -0.219 -0.22 c 0,-2.666 -0.828,-4.86 -2.414,-5.921 -0.697,-0.471 -1.225,-0.88 -2.414,-0.88 h -0.217 c -4.177,0 -7.677,2.879 -7.677,7.24 z"
   inkscape:connector-curvature="0"
   id="_287324960_2_"
   style="fill:#1b1b17" />
</g></svg>