<?xml version="1.0" encoding="UTF-8" standalone="no"?>
<!-- Created with Inkscape (http://www.inkscape.org/) -->

<svg
   xmlns:dc="http://purl.org/dc/elements/1.1/"
   xmlns:cc="http://creativecommons.org/ns#"
   xmlns:rdf="http://www.w3.org/1999/02/22-rdf-syntax-ns#"
   xmlns:svg="http://www.w3.org/2000/svg"
   xmlns="http://www.w3.org/2000/svg"
   xmlns:inkscape="http://www.inkscape.org/namespaces/inkscape"
   version="1.1"
   width="600"
   height="451.99969"
   id="svg2"
   xml:space="preserve"><metadata
     id="metadata8"><rdf:RDF><cc:Work
         rdf:about=""><dc:format>image/svg+xml</dc:format><dc:type
           rdf:resource="http://purl.org/dc/dcmitype/StillImage" /><dc:title /></cc:Work></rdf:RDF></metadata><defs
     id="defs6"><clipPath
       id="clipPath16"><path
         d="M 0,226 300,226 300,0 0,0 0,226 z"
         inkscape:connector-curvature="0"
         id="path18" /></clipPath><clipPath
       id="clipPath24"><path
         d="m -352.833,17.5693 383.333,0 0,-75.3339 -383.333,0 0,75.3339 z"
         inkscape:connector-curvature="0"
         id="path26" /></clipPath><clipPath
       id="clipPath38"><path
         d="M 0,226 300,226 300,0 0,0 0,226 z"
         inkscape:connector-curvature="0"
         id="path40" /></clipPath><linearGradient
       x1="0"
       y1="0"
       x2="1"
       y2="0"
       id="linearGradient58"
       gradientUnits="userSpaceOnUse"
       gradientTransform="matrix(152.77832,0,0,-152.77832,10.84082,123.05859)"
       spreadMethod="pad"><stop
         id="stop60"
         style="stop-color:#6d7984;stop-opacity:1"
         offset="0" /><stop
         id="stop62"
         style="stop-color:#b4cddd;stop-opacity:1"
         offset="0.630005" /><stop
         id="stop64"
         style="stop-color:#6d7984;stop-opacity:1"
         offset="1" /></linearGradient><linearGradient
       x1="0"
       y1="0"
       x2="1"
       y2="0"
       id="linearGradient80"
       gradientUnits="userSpaceOnUse"
       gradientTransform="matrix(238.74805,0,0,-238.74805,50.269531,107.14453)"
       spreadMethod="pad"><stop
         id="stop82"
         style="stop-color:#6d7984;stop-opacity:1"
         offset="0" /><stop
         id="stop84"
         style="stop-color:#b4cddd;stop-opacity:1"
         offset="0.630005" /><stop
         id="stop86"
         style="stop-color:#6d7984;stop-opacity:1"
         offset="1" /></linearGradient></defs><g
     transform="matrix(2.0000013,0,0,-2.0000013,-800.00092,452.00029)"
     id="g10"><g
       transform="translate(400,0)"
       id="g34"><g
         clip-path="url(#clipPath38)"
         id="g36"><g
           transform="translate(125.8672,170.3223)"
           id="g42"><path
             d="m 0,0 c 18.57,0 35.464,-7.159 48.096,-18.856 1.992,-2.067 3.611,-4.61 4.661,-7.543 1.813,-5.082 1.574,-10.357 -0.269,-14.791 C 42.137,-22.896 22.516,-10.541 0,-10.541 c -33.293,0 -60.283,-26.993 -60.283,-60.294 0,-13.983 4.771,-26.844 12.759,-37.072 -3.21,-1.524 -6.301,-3.288 -9.251,-5.277 -8.822,11.815 -14.046,26.471 -14.046,42.349 C -70.821,-31.714 -39.113,0 0,0 m 1.031,55.678 c -70.084,0 -126.898,-56.825 -126.898,-126.923 0,-37.541 16.299,-73.638 42.199,-99.077 l 257.667,0 c 4.529,189.939 -106.721,226 -172.968,226"
             inkscape:connector-curvature="0"
             id="path44"
             style="fill:#000000;fill-opacity:1;fill-rule:nonzero;stroke:none" /></g></g></g><g
       transform="translate(400,0)"
       id="g46"><g
         id="g48"><g
           id="g54"><g
             id="g56"><path
               d="m 10.84,99.077 c 0,-25.452 8.197,-48.985 22.084,-68.117 l 0,0 c 4.921,11.45 12.369,21.55 21.629,29.626 l 0,0 C 48.616,71.907 45.24,84.784 45.24,98.455 l 0,0 c 0,45.107 36.561,81.675 81.66,81.675 l 0,0 c 12.854,0 25.009,-2.981 35.826,-8.272 l 0,0 c 0.576,3.374 0.893,6.847 0.893,10.401 l 0,0 c 0,10.655 -2.718,20.625 -7.439,29.169 l 0,0 c -9.354,2.432 -19.167,3.729 -29.281,3.729 l 0,0 C 62.802,215.157 10.84,163.186 10.84,99.077"
               inkscape:connector-curvature="0"
               id="path66"
               style="fill:url(#linearGradient58);stroke:none" /></g></g></g></g><g
       transform="translate(400,0)"
       id="g68"><g
         id="g70"><g
           id="g76"><g
             id="g78"><path
               d="m 189.481,182.259 c 0,-9.488 -2.161,-18.428 -5.967,-26.307 l 0,0 c 1.869,-2.488 3.431,-5.3 4.589,-8.395 l 0,0 c 5.987,-16.016 -1.059,-33.453 -15.738,-38.979 l 0,0 c -3.887,22.912 -23.815,40.365 -47.83,40.365 l 0,0 c -26.8,0 -48.527,-21.731 -48.527,-48.536 l 0,0 c 0,-18.432 10.272,-34.464 25.402,-42.685 l 0,0 C 76.319,54.673 55.556,35.889 50.27,10.84 l 0,0 238.748,0 c -1.176,106.671 -33.89,165.491 -103.325,192.608 l 0,0 c 2.436,-6.557 3.788,-13.701 3.788,-21.189"
               inkscape:connector-curvature="0"
               id="path88"
               style="fill:url(#linearGradient80);stroke:none" /></g></g></g></g></g></svg>